<svg id="Layer_1" data-name="Layer 1" xmlns="http://www.w3.org/2000/svg" viewBox="0 0 225.69 45.33"><defs><style>.cls-1{fill:#b2b5b6;}.cls-2{fill:#f68a33;}.cls-3{fill:#005f9e;}.cls-4{fill:#939598;}</style></defs><title>United Shore - Home To UWM</title><polygon class="cls-1" points="25 31.06 25 4.92 42.84 23.59 42.84 6.59 46.54 6.59 46.54 32.55 28.69 13.92 28.69 31.06 25 31.06"/><rect class="cls-1" x="50.78" y="6.59" width="3.69" height="24.47"/><polygon class="cls-1" points="65.51 10.06 65.51 31.06 61.82 31.06 61.82 10.06 56.19 10.06 56.19 6.59 71.12 6.59 71.12 10.06 65.51 10.06"/><polygon class="cls-1" points="86.3 10.06 76.49 10.06 76.49 15.94 86.02 15.94 86.02 19.41 76.49 19.41 76.49 27.59 86.3 27.59 86.3 31.06 72.8 31.06 72.8 6.59 86.3 6.59 86.3 10.06"/><path class="cls-1" d="M91.78,32.41V7.94h5.13a18.87,18.87,0,0,1,5.83.72,10.9,10.9,0,0,1,4.17,2.43,11.69,11.69,0,0,1,3.79,9.08,11.93,11.93,0,0,1-8.1,11.56,19,19,0,0,1-5.75.68Zm3.69-3.47h1.66a13.85,13.85,0,0,0,4.14-.53A8.41,8.41,0,0,0,107,20.17a8.5,8.5,0,0,0-2.7-6.53q-2.43-2.23-7.15-2.23H95.47Z" transform="translate(-2.25 -1.35)"/><path class="cls-1" d="M136,11.56l-3,1.78a5.08,5.08,0,0,0-1.6-1.9,3.73,3.73,0,0,0-2-.51,3.79,3.79,0,0,0-2.55.87,2.72,2.72,0,0,0-1,2.16c0,1.2.88,2.16,2.66,2.89l2.44,1a10.35,10.35,0,0,1,4.36,2.94,6.64,6.64,0,0,1,1.38,4.26,7.48,7.48,0,0,1-2.25,5.58,7.73,7.73,0,0,1-5.63,2.22A7.51,7.51,0,0,1,123.48,31a8.78,8.78,0,0,1-2.55-5.32l3.74-.83a6.24,6.24,0,0,0,.89,3,4.2,4.2,0,0,0,6.19.43,4,4,0,0,0,1.14-2.93,4.13,4.13,0,0,0-.19-1.3,3.54,3.54,0,0,0-.62-1.1A4.87,4.87,0,0,0,131,22a10,10,0,0,0-1.58-.83l-2.36-1q-5-2.13-5-6.21a5.87,5.87,0,0,1,2.11-4.61,7.58,7.58,0,0,1,5.24-1.87,7.32,7.32,0,0,1,6.61,4.1" transform="translate(-2.25 -1.35)"/><polygon class="cls-1" points="140.89 16.16 151.45 16.16 151.45 6.59 155.14 6.59 155.14 31.06 151.45 31.06 151.45 19.63 140.89 19.63 140.89 31.06 137.2 31.06 137.2 6.59 140.89 6.59 140.89 16.16"/><path class="cls-1" d="M160.41,20.06a12,12,0,0,1,3.79-8.88,12.46,12.46,0,0,1,9.06-3.7,12.24,12.24,0,0,1,9,3.74,12.23,12.23,0,0,1,3.75,9,12.06,12.06,0,0,1-3.77,9,12.94,12.94,0,0,1-17.66.41,12.05,12.05,0,0,1-4.15-9.51m3.73,0a8.84,8.84,0,0,0,2.72,6.67,9,9,0,0,0,12.76-.05,9,9,0,0,0,2.65-6.56,8.93,8.93,0,0,0-2.62-6.55,9.13,9.13,0,0,0-12.88,0,8.78,8.78,0,0,0-2.63,6.49" transform="translate(-2.25 -1.35)"/><path class="cls-1" d="M197.33,22l7.58,10.43h-4.52l-7-10h-.66v10h-3.69V7.94h4.32c3.24,0,5.57.6,7,1.82a6.71,6.71,0,0,1,2.38,5.35,7,7,0,0,1-1.49,4.47,6.68,6.68,0,0,1-3.94,2.4m-4.59-2.81h1.17c3.5,0,5.25-1.33,5.25-4q0-3.75-5.11-3.75h-1.31Z" transform="translate(-2.25 -1.35)"/><polygon class="cls-1" points="218.22 10.06 208.41 10.06 208.41 15.94 217.94 15.94 217.94 19.41 208.41 19.41 208.41 27.59 218.22 27.59 218.22 31.06 204.72 31.06 204.72 6.59 218.22 6.59 218.22 10.06"/><path class="cls-1" d="M20.5,1.35a2.66,2.66,0,0,1,2.72,2.58,2.7,2.7,0,0,1-5.4,0A2.66,2.66,0,0,1,20.5,1.35" transform="translate(-2.25 -1.35)"/><path class="cls-1" d="M4.92,1.35A2.65,2.65,0,0,1,7.64,3.93,2.66,2.66,0,0,1,5,6.57,2.66,2.66,0,0,1,2.25,4,2.65,2.65,0,0,1,4.92,1.35" transform="translate(-2.25 -1.35)"/><path class="cls-2" d="M12,32.62c-3.06-.13-5.38-.92-7-2.39S2.44,26.2,2.44,23V8.06H7.53V22.15a6.56,6.56,0,0,0,1.31,4.46A4.52,4.52,0,0,0,12,28.07v4.55Z" transform="translate(-2.25 -1.35)"/><path class="cls-3" d="M13.58,28.06A4.65,4.65,0,0,0,16.7,26.6,6.5,6.5,0,0,0,18,22.15V8.06h5.08V23c0,3.24-.85,5.67-2.56,7.27s-3.91,2.28-7,2.39V28.06Z" transform="translate(-2.25 -1.35)"/><path class="cls-1" d="M227.59,11.51a2.55,2.55,0,0,1-1,1,2.63,2.63,0,0,1-1.32.35,2.66,2.66,0,0,1-1.32-.35,2.55,2.55,0,0,1-.95-1,2.66,2.66,0,0,1-.35-1.32,2.62,2.62,0,0,1,.35-1.31,2.48,2.48,0,0,1,.95-1,2.66,2.66,0,0,1,1.32-.35,2.63,2.63,0,0,1,1.32.35,2.55,2.55,0,0,1,1,1,2.5,2.5,0,0,1,.35,1.31A2.56,2.56,0,0,1,227.59,11.51Zm-1.17.58a2.19,2.19,0,0,0,.8-.8,2.12,2.12,0,0,0,.3-1.1,2.14,2.14,0,0,0-.3-1.1,2.09,2.09,0,0,0-.8-.79A2.14,2.14,0,0,0,225.31,8a2.07,2.07,0,0,0-1.09.29,2.19,2.19,0,0,0-.8.8,2.1,2.1,0,0,0-.29,1.09,2,2,0,0,0,.29,1.09,2.12,2.12,0,0,0,.8.8,2.14,2.14,0,0,0,1.1.3A2.23,2.23,0,0,0,226.42,12.09Zm-.85-3.35a1.26,1.26,0,0,1,.74.19.7.7,0,0,1,.25.59.77.77,0,0,1-.21.59.93.93,0,0,1-.58.22l.75,1.36H226l-.75-1.36h-.54v1.36h-.43V8.74Zm-.28,1.16h.26a.84.84,0,0,0,.45-.09.28.28,0,0,0,.13-.25.34.34,0,0,0-.14-.31.94.94,0,0,0-.49-.09h-.76V9.9Z" transform="translate(-2.25 -1.35)"/><path class="cls-3" d="M200.75,40.12h1v3.77a1.88,1.88,0,0,0,.4,1.32,1.67,1.67,0,0,0,2.26,0,1.88,1.88,0,0,0,.41-1.32V40.12h1V44a2.66,2.66,0,0,1-.66,2,2.59,2.59,0,0,1-1.93.65,2.52,2.52,0,0,1-1.91-.65,2.65,2.65,0,0,1-.66-2Z" transform="translate(-2.25 -1.35)"/><path class="cls-3" d="M206.31,40.12h1l1.17,3.8,1.57-3.8,1.64,3.81,1.13-3.81h1l-2,6.55-1.8-4.19-1.75,4.19Z" transform="translate(-2.25 -1.35)"/><path class="cls-3" d="M218.84,42.76l-2,2.72L215,42.76l-.44,3.83h-1l.74-6.58,2.61,3.67L219.57,40l.74,6.58h-1Z" transform="translate(-2.25 -1.35)"/><path class="cls-3" d="M220.28,40.08a.43.43,0,1,1,0,.85.43.43,0,0,1,0-.85Zm0,.09a.34.34,0,1,0,0,.68.34.34,0,1,0,0-.68Z" transform="translate(-2.25 -1.35)"/><path class="cls-3" d="M220.21,40.72h-.11v-.44h.27s.06,0,.07.09a.12.12,0,0,1,0,.1s0,0,0,0a.11.11,0,0,1,.07.08l.06.13h-.12s0-.07-.05-.1v0a.08.08,0,0,0-.07,0h0s0,0,0,0v.15Zm0-.25h.07s0,0,.05,0h0a0,0,0,0,0-.05,0h-.07Z" transform="translate(-2.25 -1.35)"/><path class="cls-4" d="M3,40v2.53H6.19V40h.69v6.22H6.19V43.12H3v3.05h-.7V40Z" transform="translate(-2.25 -1.35)"/><path class="cls-4" d="M7.81,43.07a3.12,3.12,0,0,1,.43-1.6,3.26,3.26,0,0,1,1.18-1.18,3.23,3.23,0,0,1,3.24,0,3.07,3.07,0,0,1,1.19,1.18,3.14,3.14,0,0,1,.44,1.61,3.1,3.1,0,0,1-.43,1.6,3.26,3.26,0,0,1-4.43,1.18,3.15,3.15,0,0,1-1.18-1.17A3.07,3.07,0,0,1,7.81,43.07ZM11,40.49a2.49,2.49,0,0,0-1.28.35,2.62,2.62,0,0,0-.92.95,2.53,2.53,0,0,0,0,2.55,2.65,2.65,0,0,0,.93.95,2.51,2.51,0,0,0,1.27.35,2.58,2.58,0,0,0,2.21-1.31,2.47,2.47,0,0,0,.34-1.27,2.64,2.64,0,0,0-.34-1.29A2.55,2.55,0,0,0,11,40.49Z" transform="translate(-2.25 -1.35)"/><path class="cls-4" d="M16,39.6l2.26,5.22,2.27-5.22,1.26,6.57h-.71l-.8-4.2h0l-2,4.46-2-4.46h0l-.8,4.2h-.71Z" transform="translate(-2.25 -1.35)"/><path class="cls-4" d="M25.75,40v.65H23.22v1.84h2.45v.65H23.22v2.44h2.53v.64H22.52V40Z" transform="translate(-2.25 -1.35)"/><path class="cls-4" d="M32.29,40v.65H30.77v5.57h-.69V40.6h-1.5V40Z" transform="translate(-2.25 -1.35)"/><path class="cls-4" d="M46.09,39.93v.64H44.57v5.58h-.69V40.57H42.37v-.64Z" transform="translate(-2.25 -1.35)"/><path class="cls-4" d="M32.39,43.07a3.12,3.12,0,0,1,.43-1.6A3.26,3.26,0,0,1,34,40.29a3.23,3.23,0,0,1,3.24,0,3.07,3.07,0,0,1,1.19,1.18,3.14,3.14,0,0,1,.44,1.61,3.1,3.1,0,0,1-.43,1.6A3.26,3.26,0,0,1,34,45.85a3.26,3.26,0,0,1-1.19-1.17A3.16,3.16,0,0,1,32.39,43.07Zm3.23-2.58a2.49,2.49,0,0,0-1.28.35,2.62,2.62,0,0,0-.92.95,2.53,2.53,0,0,0,0,2.55,2.65,2.65,0,0,0,.93.95,2.51,2.51,0,0,0,1.27.35,2.58,2.58,0,0,0,2.21-1.31,2.47,2.47,0,0,0,.34-1.27,2.64,2.64,0,0,0-.34-1.29,2.55,2.55,0,0,0-2.22-1.28Z" transform="translate(-2.25 -1.35)"/><path class="cls-4" d="M62.77,40l-.3,1.69h1L63.78,40h.65l-.29,1.69h.76v.64H64l-.24,1.41h.83v.64h-.95l-.33,1.84h-.63l.33-1.84H62l-.34,1.84h-.62l.32-1.84h-.84v-.64h1l.23-1.41h-.88v-.64h1l.3-1.69Zm-.39,2.33-.25,1.41h1l.24-1.41Z" transform="translate(-2.25 -1.35)"/><path class="cls-4" d="M68.24,40v6.22h-.69V40.6h-1l.36-.65Z" transform="translate(-2.25 -1.35)"/><path class="cls-4" d="M77,39.63l2,5L80.64,40h.75L79,46.49l-2-5-2,5L72.6,40h.75L75,44.61Z" transform="translate(-2.25 -1.35)"/><path class="cls-4" d="M82.79,40v2.53H86V40h.69v6.22H86V43.12H82.79v3.05H82.1V40Z" transform="translate(-2.25 -1.35)"/><path class="cls-4" d="M47.59,39.93v2.52h3.19V39.93h.69v6.22h-.69v-3H47.59v3H46.9V39.93Z" transform="translate(-2.25 -1.35)"/><path class="cls-4" d="M87.59,43.07a3.13,3.13,0,0,1,.44-1.6,3.18,3.18,0,0,1,1.18-1.18,3.08,3.08,0,0,1,1.62-.44,3.17,3.17,0,0,1,1.62.43,3.21,3.21,0,0,1,1.19,1.18,3.14,3.14,0,0,1,.44,1.61,3.11,3.11,0,0,1-.44,1.6,3.24,3.24,0,0,1-6-1.6Zm3.24-2.58a2.46,2.46,0,0,0-1.28.35,2.73,2.73,0,0,0-.93.95,2.56,2.56,0,0,0-.33,1.27,2.48,2.48,0,0,0,.34,1.28,2.67,2.67,0,0,0,.94.95,2.54,2.54,0,0,0,3.48-1,2.59,2.59,0,0,0-.94-3.5A2.48,2.48,0,0,0,90.83,40.49Z" transform="translate(-2.25 -1.35)"/><path class="cls-4" d="M95.66,40v5.58h1.72v.64H95V40Z" transform="translate(-2.25 -1.35)"/><path class="cls-4" d="M101.24,40v.65H98.7v1.84h2.46v.65H98.7v2.44h2.54v.64H98V40Z" transform="translate(-2.25 -1.35)"/><path class="cls-4" d="M105.19,41.17a1.33,1.33,0,0,0-.46-.52,1.09,1.09,0,0,0-.61-.16,1,1,0,0,0-.74.28.92.92,0,0,0-.3.69.69.69,0,0,0,.25.53,2.07,2.07,0,0,0,.59.38l.62.27a4.77,4.77,0,0,1,.65.35,1.58,1.58,0,0,1,.57.58,1.48,1.48,0,0,1,.2.79A1.87,1.87,0,0,1,105,46a2,2,0,0,1-1,.26,1.91,1.91,0,0,1-1.26-.43,2,2,0,0,1-.68-1.18l.67-.19a1.48,1.48,0,0,0,.43.84,1.17,1.17,0,0,0,.82.32,1.25,1.25,0,0,0,.9-.36,1.13,1.13,0,0,0,.38-.86,1,1,0,0,0-.29-.73,3.34,3.34,0,0,0-1.06-.59,3.49,3.49,0,0,1-1.15-.68,1.34,1.34,0,0,1-.38-1,1.45,1.45,0,0,1,.51-1.14,1.95,1.95,0,0,1,2.17-.2,2,2,0,0,1,.67.72Z" transform="translate(-2.25 -1.35)"/><path class="cls-4" d="M109.22,39.66l2.8,6.51h-.77l-.74-1.76h-2.65l-.75,1.76h-.76Zm-1.08,4.1h2.1l-1-2.49Z" transform="translate(-2.25 -1.35)"/><path class="cls-4" d="M113.34,40v5.58h1.71v.64h-2.41V40Z" transform="translate(-2.25 -1.35)"/><path class="cls-4" d="M118.91,40v.65h-2.53v1.84h2.46v.65h-2.46v2.44h2.53v.64h-3.22V40Z" transform="translate(-2.25 -1.35)"/><path class="cls-4" d="M55.78,39.93v.64H53.25v1.85h2.46v.64H53.25V45.5h2.53v.65H52.56V39.93Z" transform="translate(-2.25 -1.35)"/><path class="cls-4" d="M123.34,39.6l2.26,5.22,2.27-5.22,1.26,6.57h-.71l-.8-4.2h0l-2,4.46-2-4.46h0l-.8,4.2h-.71Z" transform="translate(-2.25 -1.35)"/><path class="cls-4" d="M129.56,43.07a3.12,3.12,0,0,1,.43-1.6,3.28,3.28,0,0,1,1.19-1.18,3.24,3.24,0,0,1,4.42,1.17,3,3,0,0,1,.44,1.61,3.1,3.1,0,0,1-.43,1.6,3.22,3.22,0,0,1-2.81,1.61,3.27,3.27,0,0,1-2.8-1.6A3.17,3.17,0,0,1,129.56,43.07Zm3.23-2.58a2.45,2.45,0,0,0-1.27.35,2.64,2.64,0,0,0-.93.95,2.57,2.57,0,0,0-.34,1.27,2.49,2.49,0,0,0,.35,1.28,2.59,2.59,0,0,0,.94.95,2.44,2.44,0,0,0,1.26.35,2.4,2.4,0,0,0,1.28-.36,2.52,2.52,0,0,0,.94-1,2.59,2.59,0,0,0-.94-3.5A2.51,2.51,0,0,0,132.79,40.49Z" transform="translate(-2.25 -1.35)"/><path class="cls-4" d="M137.88,40c1.49,0,2.23.58,2.23,1.72a1.69,1.69,0,0,1-.42,1.18,1.67,1.67,0,0,1-1.14.54l2,2.78h-.85l-1.88-2.73h-.17v2.73h-.7V40Zm-.25,2.88h.3a1.89,1.89,0,0,0,1.11-.27,1,1,0,0,0,.38-.84,1,1,0,0,0-.37-.87A1.85,1.85,0,0,0,138,40.6h-.36Z" transform="translate(-2.25 -1.35)"/><path class="cls-4" d="M144.36,40v.65h-1.52v5.57h-.69V40.6h-1.5V40Z" transform="translate(-2.25 -1.35)"/><path class="cls-4" d="M149.78,41.66a3,3,0,0,0-.93-.86,2.29,2.29,0,0,0-1.21-.31,2.51,2.51,0,0,0-1.27.35,2.67,2.67,0,0,0-.93,1,2.54,2.54,0,0,0-.34,1.29,2.33,2.33,0,0,0,.37,1.28,2.62,2.62,0,0,0,.94.93,2.29,2.29,0,0,0,1.18.34,2.38,2.38,0,0,0,1.07-.26,2.18,2.18,0,0,0,.83-.7,1.69,1.69,0,0,0,.32-1H148v-.64h2.59v.35a3.15,3.15,0,0,1-.2,1.13,2.51,2.51,0,0,1-.64.92,3.06,3.06,0,0,1-1,.61,3,3,0,0,1-1.13.22,3.06,3.06,0,0,1-1.59-.43,3.18,3.18,0,0,1-1.61-2.77,3.08,3.08,0,0,1,.44-1.62,3.25,3.25,0,0,1,2.8-1.61,3.12,3.12,0,0,1,1.47.34,3.64,3.64,0,0,1,1.16,1Z" transform="translate(-2.25 -1.35)"/><path class="cls-4" d="M153.78,39.66l2.79,6.51h-.76l-.74-1.76h-2.65l-.75,1.76h-.76Zm-1.08,4.1h2.1l-1-2.49Z" transform="translate(-2.25 -1.35)"/><path class="cls-4" d="M162.11,41.66a2.91,2.91,0,0,0-.93-.86,2.29,2.29,0,0,0-1.21-.31,2.51,2.51,0,0,0-1.27.35,2.67,2.67,0,0,0-.93,1,2.54,2.54,0,0,0-.34,1.29,2.33,2.33,0,0,0,.37,1.28,2.62,2.62,0,0,0,.94.93,2.29,2.29,0,0,0,1.18.34,2.35,2.35,0,0,0,1.07-.26,2.18,2.18,0,0,0,.83-.7,1.69,1.69,0,0,0,.32-1h-1.85v-.64h2.59v.35a3.15,3.15,0,0,1-.2,1.13,2.51,2.51,0,0,1-.64.92,3.06,3.06,0,0,1-1,.61,3,3,0,0,1-1.13.22,3.06,3.06,0,0,1-1.59-.43,3.18,3.18,0,0,1-1.61-2.77,3.08,3.08,0,0,1,.44-1.62,3.25,3.25,0,0,1,2.8-1.61,3.12,3.12,0,0,1,1.47.34,3.64,3.64,0,0,1,1.16,1Z" transform="translate(-2.25 -1.35)"/><path class="cls-4" d="M167,40v.65h-2.53v1.84H167v.65h-2.46v2.44H167v.64h-3.23V40Z" transform="translate(-2.25 -1.35)"/><path class="cls-4" d="M171.35,40v5.58h1.72v.64h-2.41V40Z" transform="translate(-2.25 -1.35)"/><path class="cls-4" d="M176.93,40v.65H174.4v1.84h2.45v.65H174.4v2.44h2.53v.64H173.7V40Z" transform="translate(-2.25 -1.35)"/><path class="cls-4" d="M178.1,39.69,183,44.77V40h.69v6.5l-4.85-5.07v4.79h-.69Z" transform="translate(-2.25 -1.35)"/><path class="cls-4" d="M186.2,40a3.91,3.91,0,0,1,1.48.26,3.18,3.18,0,0,1,1,.7,3,3,0,0,1,.61,1,3.52,3.52,0,0,1,.2,1.18,3.19,3.19,0,0,1-.37,1.49,3,3,0,0,1-1.09,1.14,3.45,3.45,0,0,1-1.87.45h-1.3V40Zm0,5.58a3,3,0,0,0,1-.17,2.26,2.26,0,0,0,.82-.51,2.22,2.22,0,0,0,.54-.8,2.6,2.6,0,0,0,.19-1,2.48,2.48,0,0,0-.3-1.22,2.39,2.39,0,0,0-.86-.9,2.81,2.81,0,0,0-1.49-.34h-.59v4.93Z" transform="translate(-2.25 -1.35)"/><path class="cls-4" d="M193.66,40v.65h-2.54v1.84h2.46v.65h-2.46v2.44h2.54v.64h-3.23V40Z" transform="translate(-2.25 -1.35)"/><path class="cls-4" d="M195.73,40c1.49,0,2.23.58,2.23,1.72a1.62,1.62,0,0,1-1.56,1.72l2,2.78h-.85l-1.88-2.73h-.17v2.73h-.69V40Zm-.25,2.88h.3a1.89,1.89,0,0,0,1.11-.27,1.16,1.16,0,0,0,0-1.71,1.85,1.85,0,0,0-1.06-.25h-.36Z" transform="translate(-2.25 -1.35)"/></svg>