<svg id="svg" version="1.1" width="400" height="399.52095808383234" viewBox="0 0 400 399.52095808383234" xmlns="http://www.w3.org/2000/svg" xmlns:xlink="http://www.w3.org/1999/xlink" ><g id="svgg"><path id="path0" d="M233.378 97.003 L 233.367 131.069 236.763 131.069 L 240.160 131.069 240.160 105.918 C 240.160 91.443,240.313 80.672,240.520 80.544 C 240.717 80.422,244.617 84.232,249.186 89.012 C 253.755 93.792,259.662 99.968,262.313 102.738 C 264.964 105.507,270.280 111.066,274.126 115.091 C 277.972 119.116,281.658 122.970,282.318 123.656 C 282.977 124.341,285.450 126.932,287.812 129.413 L 292.108 133.923 292.108 99.729 L 292.108 65.534 288.511 65.534 L 284.915 65.534 284.915 90.909 C 284.915 104.865,284.763 116.284,284.576 116.284 C 284.390 116.284,283.188 115.160,281.905 113.786 C 280.622 112.413,277.493 109.119,274.951 106.468 C 272.409 103.816,268.637 99.860,266.568 97.677 C 264.498 95.493,261.080 91.908,258.972 89.710 C 254.220 84.758,240.085 69.972,236.241 65.934 L 233.389 62.937 233.378 97.003 M180.387 64.705 C 154.713 68.823,142.644 97.895,158.047 118.518 C 160.449 121.734,167.522 127.872,168.826 127.872 C 168.938 127.872,170.153 128.403,171.527 129.052 C 193.160 139.271,219.486 122.382,219.460 98.302 C 219.437 77.954,200.313 61.510,180.387 64.705 M107.093 98.256 L 107.093 131.069 110.490 131.069 L 113.886 131.069 113.886 116.535 L 113.886 102.002 120.380 101.803 C 127.833 101.575,131.331 100.576,134.888 97.662 C 143.909 90.270,143.005 74.766,133.186 68.466 C 129.820 66.307,127.280 65.875,116.583 65.646 L 107.093 65.443 107.093 98.256 M194.206 72.332 C 205.513 76.495,212.587 86.455,212.587 98.210 C 212.587 101.485,212.430 102.442,211.144 106.988 C 207.941 118.311,193.081 127.837,182.279 125.493 C 181.037 125.224,179.168 124.822,178.128 124.601 C 172.252 123.352,164.916 117.549,161.476 111.427 C 149.351 89.848,171.129 63.834,194.206 72.332 M123.923 72.295 C 131.636 73.670,134.261 76.519,134.261 83.516 C 134.261 91.633,129.988 95.100,119.580 95.426 L 113.886 95.605 113.886 83.800 C 113.886 74.730,114.002 71.948,114.386 71.793 C 115.489 71.348,119.913 71.581,123.923 72.295 M237.363 198.781 L 237.363 232.567 240.759 232.567 L 244.156 232.567 244.156 207.193 C 244.156 193.237,244.267 181.818,244.402 181.818 C 244.538 181.818,245.302 182.508,246.101 183.352 C 249.778 187.237,264.003 202.100,268.345 206.593 C 271.000 209.341,276.848 215.441,281.341 220.150 C 285.834 224.860,290.898 230.164,292.595 231.939 L 295.679 235.165 295.692 201.099 L 295.704 167.033 292.308 167.033 L 288.911 167.033 288.911 192.408 C 288.911 218.489,288.839 219.695,287.432 217.220 C 287.257 216.911,283.516 212.913,279.121 208.336 C 265.568 194.225,255.401 183.584,251.128 179.041 C 249.381 177.183,247.142 174.846,246.152 173.846 C 245.162 172.846,243.010 170.589,241.369 168.831 C 239.729 167.073,238.156 165.491,237.874 165.315 C 237.460 165.056,237.363 171.418,237.363 198.781 M126.474 166.870 C 94.493 174.378,89.675 216.310,119.184 230.311 C 128.206 234.591,139.582 234.533,148.279 230.162 C 153.197 227.690,153.047 227.905,153.047 223.311 L 153.047 219.304 151.149 220.737 C 143.034 226.863,133.801 228.773,125.615 226.019 C 102.752 218.327,99.491 188.139,120.215 176.026 C 130.022 170.294,141.149 171.314,151.149 178.863 L 153.047 180.296 153.047 176.324 C 153.047 171.692,153.127 171.815,148.676 169.616 C 141.684 166.160,133.702 165.173,126.474 166.870 M190.010 166.266 C 182.550 167.909,179.558 169.068,175.270 171.976 C 169.729 175.734,164.170 182.608,162.627 187.612 C 162.355 188.492,161.998 189.391,161.833 189.610 C 161.324 190.287,160.634 194.152,160.379 197.762 C 158.564 223.442,186.526 241.656,209.814 229.962 C 211.449 229.141,212.877 228.351,212.987 228.205 C 213.097 228.060,213.786 227.570,214.519 227.115 C 221.469 222.809,226.842 213.671,228.320 203.643 C 228.922 199.559,228.884 198.982,227.542 191.912 C 224.575 176.284,205.063 162.951,190.010 166.266 M200.424 173.040 C 225.264 179.404,229.464 212.544,206.896 224.096 C 204.529 225.307,202.728 225.931,198.402 227.038 C 188.020 229.695,173.830 221.286,168.958 209.590 C 160.791 189.981,179.901 167.783,200.424 173.040 M117.682 267.128 C 117.463 267.201,115.794 267.724,113.974 268.291 C 107.304 270.370,101.980 276.372,100.710 283.243 C 99.997 287.099,99.848 286.913,103.651 286.913 L 107.002 286.913 107.281 285.055 C 109.699 268.930,134.037 270.265,134.037 286.523 C 134.037 292.029,133.077 293.593,121.135 307.525 C 120.555 308.202,119.341 309.641,118.437 310.722 C 117.533 311.803,113.307 316.803,109.046 321.833 C 104.785 326.863,100.791 331.583,100.171 332.322 L 99.043 333.666 120.051 333.666 L 141.059 333.666 141.059 330.470 L 141.059 327.273 127.273 327.273 C 118.741 327.273,113.487 327.127,113.487 326.890 C 113.487 326.679,115.159 324.566,117.203 322.194 C 126.770 311.094,135.280 301.078,136.489 299.494 C 143.845 289.858,141.651 276.129,131.815 270.246 C 128.303 268.145,120.089 266.333,117.682 267.128 M168.182 268.089 C 157.304 271.640,150.475 284.306,150.492 300.899 C 150.510 317.920,157.328 330.272,168.688 333.860 C 187.897 339.928,203.060 311.517,194.323 285.827 C 189.377 271.285,179.312 264.455,168.182 268.089 M272.527 267.901 C 259.079 271.876,254.658 288.745,264.747 297.592 C 267.384 299.905,267.371 299.681,264.958 301.245 C 256.333 306.834,255.193 320.257,262.655 328.353 C 269.166 335.417,281.064 336.712,289.160 331.240 C 299.711 324.108,300.206 307.802,290.072 301.235 C 287.706 299.702,287.719 299.947,289.897 298.030 C 303.969 285.643,290.653 262.545,272.527 267.901 M215.780 269.630 C 215.330 270.455,214.532 271.893,214.007 272.827 L 213.053 274.525 218.415 274.525 L 223.776 274.525 223.776 304.096 L 223.776 333.666 227.173 333.666 L 230.569 333.666 230.569 300.899 L 230.569 268.132 223.585 268.132 L 216.600 268.132 215.780 269.630 M178.589 274.709 C 191.685 281.345,194.143 310.339,182.762 323.922 C 175.665 332.392,163.546 328.068,159.671 315.684 C 159.293 314.476,158.826 313.127,158.634 312.687 C 157.726 310.617,157.260 306.617,157.260 300.899 C 157.260 295.181,157.726 291.181,158.634 289.111 C 158.826 288.671,159.292 287.323,159.670 286.114 C 162.796 276.096,171.259 270.994,178.589 274.709 M282.711 274.695 C 287.595 277.308,289.928 281.966,288.943 287.138 C 286.280 301.114,265.981 299.329,265.943 285.115 C 265.927 279.476,268.783 275.959,275.325 273.561 C 276.754 273.037,280.763 273.652,282.711 274.695 M281.500 303.350 C 295.484 307.940,292.236 328.253,277.522 328.221 C 266.012 328.196,260.265 314.778,268.316 306.726 C 272.169 302.874,276.596 301.740,281.500 303.350 " stroke="none" fill="#c8002d" fill-rule="evenodd"></path><path id="path1" d="M235.165 64.735 C 236.247 65.834,237.223 66.733,237.333 66.733 C 237.442 66.733,236.647 65.834,235.564 64.735 C 234.482 63.636,233.507 62.737,233.397 62.737 C 233.287 62.737,234.082 63.636,235.165 64.735 M106.877 65.634 C 106.772 65.909,106.734 80.789,106.792 98.701 L 106.898 131.269 106.995 98.356 L 107.093 65.443 116.783 65.593 C 122.113 65.675,125.664 65.619,124.675 65.468 C 121.283 64.951,107.087 65.083,106.877 65.634 M175.225 65.720 C 173.681 66.426,174.399 66.437,176.224 65.734 C 176.993 65.438,177.353 65.190,177.023 65.183 C 176.693 65.176,175.884 65.418,175.225 65.720 M193.606 65.473 C 194.842 66.002,196.913 66.411,196.204 65.985 C 195.874 65.788,194.975 65.515,194.206 65.379 C 193.262 65.212,193.067 65.242,193.606 65.473 M284.782 65.401 C 284.635 65.548,284.515 77.005,284.515 90.862 L 284.515 116.057 282.218 113.872 L 279.920 111.688 282.104 113.986 C 283.306 115.250,284.429 116.284,284.602 116.284 C 284.774 116.284,284.915 104.872,284.915 90.924 L 284.915 65.564 288.611 65.433 L 292.308 65.301 288.678 65.218 C 286.682 65.172,284.928 65.255,284.782 65.401 M199.401 67.316 C 199.401 67.426,200.120 67.883,200.999 68.332 C 201.878 68.780,202.597 69.057,202.597 68.947 C 202.597 68.837,201.878 68.381,200.999 67.932 C 200.120 67.484,199.401 67.207,199.401 67.316 M242.158 72.128 C 244.016 73.996,245.627 75.524,245.737 75.524 C 245.846 75.524,244.416 73.996,242.557 72.128 C 240.699 70.260,239.089 68.731,238.979 68.731 C 238.869 68.731,240.299 70.260,242.158 72.128 M136.064 70.729 C 136.922 71.608,137.715 72.328,137.825 72.328 C 137.934 72.328,137.322 71.608,136.464 70.729 C 135.605 69.850,134.813 69.131,134.703 69.131 C 134.593 69.131,135.205 69.850,136.064 70.729 M165.588 70.398 C 163.965 71.620,163.499 72.101,164.436 71.589 C 165.475 71.020,167.304 69.551,166.987 69.539 C 166.852 69.534,166.222 69.921,165.588 70.398 M203.796 69.641 C 203.796 69.717,204.381 70.208,205.095 70.731 C 205.899 71.319,206.178 71.415,205.827 70.984 C 205.295 70.328,203.796 69.338,203.796 69.641 M183.529 71.023 C 184.579 71.106,186.198 71.105,187.125 71.021 C 188.052 70.937,187.193 70.870,185.215 70.871 C 183.237 70.872,182.478 70.941,183.529 71.023 M178.278 71.587 C 176.135 72.204,177.007 72.311,179.421 71.728 C 180.629 71.436,181.169 71.198,180.619 71.199 C 180.070 71.200,179.016 71.375,178.278 71.587 M189.044 71.273 C 189.136 71.352,190.020 71.524,191.009 71.655 C 192.210 71.814,192.542 71.775,192.008 71.539 C 191.245 71.201,188.697 70.972,189.044 71.273 M116.194 71.822 C 117.134 71.906,118.573 71.905,119.391 71.819 C 120.210 71.733,119.441 71.664,117.682 71.665 C 115.924 71.667,115.255 71.737,116.194 71.822 M114.063 83.716 C 114.063 90.310,114.118 93.063,114.185 89.835 C 114.252 86.607,114.252 81.212,114.185 77.847 C 114.118 74.482,114.063 77.123,114.063 83.716 M207.536 72.636 C 207.852 73.148,210.190 74.878,210.190 74.600 C 210.190 74.501,209.530 73.917,208.723 73.302 C 207.916 72.686,207.382 72.387,207.536 72.636 M138.743 74.299 C 139.240 75.163,139.716 75.802,139.799 75.719 C 139.972 75.546,138.293 72.727,138.017 72.727 C 137.919 72.727,138.245 73.435,138.743 74.299 M160.846 74.318 C 159.992 75.193,159.371 75.958,159.467 76.018 C 159.562 76.077,160.384 75.361,161.292 74.427 C 162.200 73.492,162.821 72.727,162.672 72.727 C 162.522 72.727,161.701 73.443,160.846 74.318 M128.871 73.790 C 129.530 74.137,130.609 74.894,131.267 75.472 L 132.465 76.523 131.467 75.387 C 130.514 74.300,128.669 73.109,127.992 73.143 C 127.816 73.152,128.212 73.443,128.871 73.790 M172.927 73.755 C 171.433 74.565,171.524 74.903,173.027 74.126 C 173.686 73.785,174.226 73.421,174.226 73.316 C 174.226 73.059,174.183 73.074,172.927 73.755 M196.237 73.276 C 196.648 73.644,199.001 74.725,199.001 74.546 C 199.001 74.316,196.786 73.127,196.357 73.127 C 196.199 73.127,196.146 73.194,196.237 73.276 M169.016 76.353 L 167.632 77.580 169.131 76.505 C 170.455 75.555,170.886 75.125,170.514 75.125 C 170.451 75.125,169.777 75.677,169.016 76.353 M210.190 75.250 C 210.190 75.319,210.774 75.903,211.489 76.549 L 212.787 77.722 211.614 76.424 C 210.520 75.213,210.190 74.941,210.190 75.250 M200.799 75.781 C 202.834 77.587,203.583 78.113,202.799 77.186 C 202.363 76.671,201.645 76.064,201.203 75.838 C 200.761 75.612,200.579 75.586,200.799 75.781 M246.953 76.966 C 246.953 77.172,248.437 78.776,250.250 80.529 L 253.546 83.716 250.350 80.331 C 248.591 78.470,247.108 76.866,247.053 76.768 C 246.998 76.670,246.953 76.759,246.953 76.966 M157.443 78.322 C 156.973 78.981,156.679 79.520,156.789 79.520 C 156.899 79.520,157.373 78.981,157.842 78.322 C 158.312 77.662,158.606 77.123,158.496 77.123 C 158.386 77.123,157.912 77.662,157.443 78.322 M213.387 79.121 C 213.856 79.780,214.330 80.320,214.440 80.320 C 214.550 80.320,214.256 79.780,213.786 79.121 C 213.317 78.462,212.843 77.922,212.733 77.922 C 212.623 77.922,212.917 78.462,213.387 79.121 M141.199 83.516 C 141.199 85.385,141.267 86.149,141.352 85.215 C 141.436 84.281,141.436 82.752,141.352 81.818 C 141.267 80.884,141.199 81.648,141.199 83.516 M240.343 80.819 C 240.238 81.094,240.200 92.557,240.259 106.294 L 240.366 131.269 240.477 105.894 L 240.589 80.519 248.814 88.911 L 257.039 97.303 248.952 88.811 C 240.387 79.818,240.637 80.050,240.343 80.819 M163.780 81.419 C 162.631 82.806,162.144 83.516,162.341 83.516 C 162.452 83.516,163.023 82.887,163.609 82.118 C 164.698 80.690,164.830 80.152,163.780 81.419 M215.984 83.516 C 216.325 84.176,216.694 84.715,216.804 84.715 C 216.914 84.715,216.725 84.176,216.384 83.516 C 216.043 82.857,215.674 82.318,215.564 82.318 C 215.454 82.318,215.643 82.857,215.984 83.516 M209.424 85.714 C 209.424 85.934,209.769 86.743,210.190 87.512 C 210.611 88.282,210.956 88.731,210.956 88.511 C 210.956 88.292,210.611 87.483,210.190 86.713 C 209.769 85.944,209.424 85.495,209.424 85.714 M259.141 89.910 C 260.889 91.668,262.409 93.107,262.519 93.107 C 262.629 93.107,261.288 91.668,259.540 89.910 C 257.793 88.152,256.272 86.713,256.163 86.713 C 256.053 86.713,257.393 88.152,259.141 89.910 M152.294 88.351 C 152.049 89.054,151.861 89.828,151.876 90.070 C 151.892 90.312,152.162 89.806,152.477 88.946 C 152.792 88.086,152.980 87.313,152.895 87.227 C 152.810 87.142,152.539 87.648,152.294 88.351 M132.998 88.913 C 132.654 89.671,132.541 90.188,132.745 90.062 C 133.153 89.810,133.968 87.881,133.756 87.668 C 133.682 87.595,133.342 88.156,132.998 88.913 M218.250 89.111 C 218.270 90.149,218.899 91.855,218.913 90.909 C 218.920 90.470,218.770 89.750,218.581 89.311 C 218.371 88.821,218.243 88.744,218.250 89.111 M130.844 92.008 L 129.670 93.307 130.969 92.133 C 132.180 91.039,132.451 90.709,132.143 90.709 C 132.074 90.709,131.490 91.294,130.844 92.008 M158.361 92.960 C 157.829 94.872,157.993 103.191,158.582 104.096 L 159.101 104.895 158.842 104.096 C 158.333 102.528,158.160 96.466,158.561 94.306 C 159.003 91.931,158.879 91.099,158.361 92.960 M125.674 94.552 C 124.087 95.110,124.085 95.112,125.462 94.902 C 126.224 94.786,127.025 94.514,127.240 94.298 C 127.703 93.835,127.721 93.832,125.674 94.552 M212.337 98.102 C 212.338 100.519,212.404 101.457,212.484 100.185 C 212.563 98.913,212.562 96.935,212.482 95.790 C 212.401 94.644,212.336 95.684,212.337 98.102 M219.473 96.304 C 219.473 97.073,219.556 97.388,219.656 97.003 C 219.757 96.618,219.757 95.989,219.656 95.604 C 219.556 95.220,219.473 95.534,219.473 96.304 M135.265 97.366 C 133.554 98.933,133.502 99.019,134.904 97.965 C 136.383 96.852,137.789 95.481,137.412 95.520 C 137.330 95.528,136.364 96.359,135.265 97.366 M267.732 98.901 C 269.148 100.330,270.396 101.499,270.506 101.499 C 270.616 101.499,269.548 100.330,268.132 98.901 C 266.716 97.473,265.468 96.304,265.358 96.304 C 265.248 96.304,266.316 97.473,267.732 98.901 M259.740 100.500 C 261.156 101.928,262.404 103.097,262.514 103.097 C 262.624 103.097,261.556 101.928,260.140 100.500 C 258.724 99.071,257.476 97.902,257.366 97.902 C 257.256 97.902,258.324 99.071,259.740 100.500 M129.670 100.514 C 128.671 100.995,128.638 101.050,129.471 100.847 C 130.603 100.570,131.876 99.921,131.269 99.930 C 131.049 99.934,130.330 100.196,129.670 100.514 M113.981 116.583 L 114.076 131.269 114.186 116.798 L 114.296 102.328 117.987 102.196 L 121.678 102.064 117.782 101.981 L 113.886 101.898 113.981 116.583 M218.432 106.344 C 218.098 108.009,218.421 108.332,218.781 106.693 C 218.933 106.003,218.974 105.354,218.872 105.252 C 218.770 105.150,218.572 105.642,218.432 106.344 M277.323 108.891 C 278.739 110.320,279.987 111.489,280.097 111.489 C 280.207 111.489,279.138 110.320,277.722 108.891 C 276.306 107.463,275.058 106.294,274.948 106.294 C 274.838 106.294,275.907 107.463,277.323 108.891 M210.257 108.671 C 210.023 109.341,209.917 109.890,210.021 109.890 C 210.290 109.890,211.044 107.814,210.847 107.616 C 210.756 107.526,210.491 108.000,210.257 108.671 M268.132 109.291 C 268.877 110.060,269.577 110.689,269.687 110.689 C 269.797 110.689,269.277 110.060,268.531 109.291 C 267.786 108.521,267.086 107.892,266.976 107.892 C 266.866 107.892,267.386 108.521,268.132 109.291 M161.039 110.689 C 161.487 111.568,161.944 112.288,162.054 112.288 C 162.164 112.288,161.887 111.568,161.439 110.689 C 160.990 109.810,160.533 109.091,160.423 109.091 C 160.313 109.091,160.590 109.810,161.039 110.689 M153.846 112.041 C 153.846 112.470,155.035 114.685,155.265 114.685 C 155.375 114.685,155.168 114.101,154.805 113.387 C 154.063 111.928,153.846 111.624,153.846 112.041 M207.578 113.586 C 206.962 114.520,206.713 115.074,207.025 114.816 C 207.625 114.320,209.155 111.888,208.867 111.888 C 208.774 111.888,208.194 112.652,207.578 113.586 M215.984 113.087 C 215.643 113.746,215.454 114.286,215.564 114.286 C 215.674 114.286,216.043 113.746,216.384 113.087 C 216.725 112.428,216.914 111.888,216.804 111.888 C 216.694 111.888,216.325 112.428,215.984 113.087 M162.601 113.419 C 162.817 113.822,163.307 114.407,163.691 114.718 C 164.123 115.069,164.026 114.790,163.438 113.986 C 162.388 112.552,161.995 112.286,162.601 113.419 M166.217 117.582 C 167.197 118.626,168.051 119.481,168.115 119.481 C 168.415 119.481,168.098 119.122,166.334 117.466 L 164.436 115.684 166.217 117.582 M204.196 117.682 C 203.225 118.671,202.521 119.481,202.631 119.481 C 202.741 119.481,203.625 118.671,204.595 117.682 C 205.566 116.693,206.270 115.884,206.160 115.884 C 206.051 115.884,205.166 116.693,204.196 117.682 M277.713 119.238 C 279.577 121.130,281.182 122.677,281.280 122.677 C 281.588 122.677,275.967 116.874,275.125 116.322 C 274.685 116.035,275.850 117.347,277.713 119.238 M213.387 117.483 C 212.917 118.142,212.623 118.681,212.733 118.681 C 212.843 118.681,213.317 118.142,213.786 117.483 C 214.256 116.823,214.550 116.284,214.440 116.284 C 214.330 116.284,213.856 116.823,213.387 117.483 M157.434 118.270 C 157.899 118.922,158.483 119.582,158.732 119.737 C 158.982 119.891,158.682 119.357,158.067 118.550 C 156.731 116.799,156.228 116.576,157.434 118.270 M210.967 120.579 L 209.590 122.078 211.089 120.701 C 212.484 119.419,212.771 119.081,212.466 119.081 C 212.399 119.081,211.725 119.755,210.967 120.579 M160.440 121.878 C 161.298 122.757,162.090 123.477,162.200 123.477 C 162.310 123.477,161.698 122.757,160.839 121.878 C 159.981 120.999,159.188 120.280,159.079 120.280 C 158.969 120.280,159.581 120.999,160.440 121.878 M170.829 121.244 C 171.489 121.810,172.193 122.275,172.394 122.276 C 172.828 122.278,172.823 122.274,171.029 121.116 L 169.630 120.214 170.829 121.244 M207.193 124.166 C 205.050 126.153,205.815 125.750,208.293 123.587 C 209.118 122.867,209.657 122.286,209.492 122.296 C 209.326 122.305,208.292 123.147,207.193 124.166 M195.205 123.455 C 194.326 123.871,193.719 124.226,193.857 124.243 C 194.245 124.293,197.003 123.091,197.003 122.872 C 197.003 122.604,197.002 122.604,195.205 123.455 M163.001 124.011 C 163.586 124.738,165.834 126.450,165.834 126.168 C 165.834 126.080,165.070 125.401,164.136 124.658 C 163.202 123.916,162.691 123.624,163.001 124.011 M182.532 125.546 C 182.909 125.696,184.206 125.818,185.415 125.818 C 186.623 125.818,187.920 125.696,188.297 125.546 C 188.673 125.397,187.376 125.275,185.415 125.275 C 183.453 125.275,182.156 125.397,182.532 125.546 M284.515 126.384 C 284.515 126.444,285.909 127.838,287.612 129.481 L 290.709 132.468 287.722 129.371 C 284.948 126.494,284.515 126.091,284.515 126.384 M168.685 128.059 C 169.032 128.406,173.427 130.261,173.427 130.060 C 173.427 129.950,172.415 129.413,171.179 128.866 C 168.994 127.900,168.302 127.676,168.685 128.059 M197.802 129.670 C 197.253 129.984,196.983 130.241,197.203 130.241 C 197.423 130.241,198.052 129.984,198.601 129.670 C 199.151 129.356,199.421 129.099,199.201 129.099 C 198.981 129.099,198.352 129.356,197.802 129.670 M178.022 131.492 C 178.681 131.721,181.469 131.975,184.216 132.057 L 189.211 132.205 184.615 131.890 C 182.088 131.717,179.301 131.463,178.422 131.325 C 176.948 131.094,176.917 131.107,178.022 131.492 M189.910 131.744 C 190.295 131.844,190.924 131.844,191.309 131.744 C 191.693 131.643,191.379 131.561,190.609 131.561 C 189.840 131.561,189.525 131.643,189.910 131.744 M237.061 198.701 L 237.163 232.767 240.559 232.791 L 243.956 232.814 240.659 232.675 L 237.363 232.536 237.363 198.762 C 237.363 173.334,237.477 165.058,237.824 165.273 C 238.110 165.450,238.177 165.383,238.000 165.097 C 237.049 163.558,236.964 166.598,237.061 198.701 M125.275 166.822 C 123.156 167.520,123.926 167.536,126.673 166.850 C 127.882 166.549,128.422 166.300,127.872 166.298 C 127.323 166.297,126.154 166.532,125.275 166.822 M140.659 166.850 C 141.868 167.152,143.037 167.387,143.257 167.374 C 144.060 167.324,140.429 166.295,139.461 166.298 C 138.911 166.300,139.451 166.549,140.659 166.850 M186.613 166.633 C 185.270 167.063,186.721 167.063,188.412 166.633 C 189.488 166.359,189.509 166.328,188.611 166.321 C 188.062 166.317,187.163 166.457,186.613 166.633 M201.399 166.850 C 202.607 167.152,203.776 167.387,203.996 167.374 C 204.799 167.324,201.169 166.295,200.200 166.298 C 199.650 166.300,200.190 166.549,201.399 166.850 M241.547 169.031 C 245.239 173.033,245.204 172.999,244.252 171.628 C 243.794 170.969,242.375 169.441,241.100 168.232 C 238.891 166.138,238.913 166.176,241.547 169.031 M288.778 166.900 C 288.631 167.046,288.511 178.484,288.511 192.317 C 288.511 214.883,288.448 217.444,287.891 217.230 C 287.536 217.094,287.375 217.161,287.515 217.387 C 288.839 219.528,288.911 218.232,288.911 192.408 L 288.911 167.033 292.308 167.033 L 295.704 167.033 295.704 201.085 L 295.704 235.138 293.407 232.954 L 291.109 230.770 293.506 233.280 L 295.904 235.790 296.007 201.711 C 296.064 182.968,296.025 167.408,295.920 167.133 C 295.717 166.600,289.287 166.391,288.778 166.900 M119.081 169.031 C 118.312 169.452,117.826 169.804,118.002 169.813 C 118.425 169.836,120.679 168.664,120.679 168.421 C 120.679 168.160,120.656 168.169,119.081 169.031 M147.453 169.031 C 148.222 169.452,149.031 169.797,149.251 169.797 C 149.471 169.797,149.021 169.452,148.252 169.031 C 147.483 168.610,146.673 168.265,146.454 168.265 C 146.234 168.265,146.683 168.610,147.453 169.031 M179.820 169.031 C 179.051 169.452,178.601 169.797,178.821 169.797 C 179.041 169.797,179.850 169.452,180.619 169.031 C 181.389 168.610,181.838 168.265,181.618 168.265 C 181.399 168.265,180.589 168.610,179.820 169.031 M152.348 171.660 C 152.910 172.327,153.047 173.260,153.047 176.404 C 153.047 180.074,153.003 180.283,152.348 179.769 C 151.714 179.272,151.700 179.286,152.197 179.920 C 153.225 181.231,153.447 180.621,153.447 176.486 C 153.447 172.690,153.373 172.289,152.547 171.590 C 151.649 170.830,151.649 170.830,152.348 171.660 M128.751 172.595 C 126.967 173.054,126.582 173.513,128.301 173.131 C 130.024 172.749,135.946 172.736,138.062 173.110 C 139.294 173.327,139.490 173.294,138.915 172.964 C 137.966 172.419,130.492 172.148,128.751 172.595 M190.210 172.580 C 189.441 172.716,191.317 172.827,194.380 172.827 C 197.442 172.827,199.420 172.714,198.775 172.575 C 197.283 172.254,192.040 172.257,190.210 172.580 M110.197 175.125 C 107.935 177.314,107.892 177.380,109.852 175.657 C 113.096 172.806,113.283 172.627,113.018 172.627 C 112.886 172.627,111.617 173.751,110.197 175.125 M218.770 176.224 C 222.461 180.225,222.427 180.192,221.474 178.821 C 221.016 178.162,219.598 176.633,218.323 175.425 C 216.114 173.331,216.135 173.369,218.770 176.224 M122.178 174.854 C 120.628 175.694,120.804 175.985,122.378 175.184 C 123.884 174.418,124.151 174.220,123.643 174.242 C 123.442 174.251,122.782 174.526,122.178 174.854 M143.090 174.375 C 143.501 174.743,145.854 175.824,145.854 175.645 C 145.854 175.415,143.639 174.226,143.210 174.226 C 143.053 174.226,142.999 174.293,143.090 174.375 M182.917 174.854 C 181.368 175.694,181.543 175.985,183.117 175.184 C 184.623 174.418,184.890 174.220,184.382 174.242 C 184.181 174.251,183.521 174.526,182.917 174.854 M204.229 174.375 C 204.640 174.743,206.993 175.824,206.993 175.645 C 206.993 175.415,204.778 174.226,204.349 174.226 C 204.191 174.226,204.138 174.293,204.229 174.375 M169.809 176.124 L 168.432 177.622 169.930 176.245 C 170.754 175.488,171.429 174.814,171.429 174.747 C 171.429 174.442,171.090 174.729,169.809 176.124 M207.992 176.297 C 208.432 176.543,209.286 177.090,209.890 177.511 C 210.495 177.932,210.989 178.181,210.989 178.064 C 210.989 177.743,208.066 175.822,207.600 175.836 C 207.376 175.843,207.552 176.050,207.992 176.297 M250.949 178.821 C 252.365 180.250,253.613 181.419,253.723 181.419 C 253.833 181.419,252.765 180.250,251.349 178.821 C 249.933 177.393,248.684 176.224,248.575 176.224 C 248.465 176.224,249.533 177.393,250.949 178.821 M117.682 177.657 L 116.484 178.687 117.782 177.828 C 118.497 177.355,119.081 176.891,119.081 176.796 C 119.081 176.497,118.912 176.601,117.682 177.657 M178.207 177.851 L 176.823 179.079 178.322 178.003 C 179.646 177.053,180.077 176.623,179.705 176.623 C 179.642 176.623,178.968 177.176,178.207 177.851 M213.586 180.619 C 214.669 181.718,215.644 182.617,215.754 182.617 C 215.864 182.617,215.068 181.718,213.986 180.619 C 212.904 179.520,211.928 178.621,211.818 178.621 C 211.708 178.621,212.504 179.520,213.586 180.619 M114.254 180.519 C 112.394 182.520,111.326 183.816,111.537 183.816 C 111.633 183.816,112.660 182.737,113.821 181.419 C 116.152 178.770,116.445 178.162,114.254 180.519 M175.200 180.320 L 174.026 181.618 175.325 180.445 C 176.039 179.799,176.623 179.215,176.623 179.146 C 176.623 178.837,176.294 179.109,175.200 180.320 M257.343 185.614 C 259.422 187.702,261.213 189.411,261.323 189.411 C 261.433 189.411,259.821 187.702,257.742 185.614 C 255.663 183.526,253.872 181.818,253.762 181.818 C 253.652 181.818,255.263 183.526,257.343 185.614 M249.750 187.612 C 251.166 189.041,252.414 190.210,252.524 190.210 C 252.634 190.210,251.566 189.041,250.150 187.612 C 248.734 186.184,247.486 185.015,247.376 185.015 C 247.266 185.015,248.334 186.184,249.750 187.612 M101.963 186.431 C 101.293 187.900,101.421 188.214,102.145 186.878 C 102.483 186.254,102.685 185.669,102.594 185.577 C 102.502 185.486,102.218 185.870,101.963 186.431 M170.030 187.413 C 169.689 188.072,169.500 188.611,169.610 188.611 C 169.720 188.611,170.089 188.072,170.430 187.413 C 170.771 186.753,170.960 186.214,170.850 186.214 C 170.740 186.214,170.371 186.753,170.030 187.413 M161.905 188.591 C 161.671 189.262,161.565 189.810,161.669 189.810 C 161.939 189.810,162.693 187.734,162.495 187.537 C 162.404 187.446,162.139 187.920,161.905 188.591 M107.885 190.427 C 107.377 191.765,106.927 193.660,107.179 193.407 C 107.487 193.096,108.666 189.411,108.457 189.411 C 108.355 189.411,108.098 189.868,107.885 190.427 M167.864 192.870 C 167.629 193.714,167.452 194.675,167.471 195.005 C 167.489 195.335,167.749 194.712,168.048 193.620 C 168.348 192.529,168.524 191.568,168.441 191.485 C 168.358 191.402,168.098 192.025,167.864 192.870 M265.934 194.594 C 267.692 196.455,269.176 198.059,269.231 198.157 C 269.286 198.255,269.415 198.251,269.518 198.147 C 269.621 198.044,268.138 196.441,266.222 194.584 L 262.737 191.209 265.934 194.594 M228.039 194.206 C 228.163 195.415,228.412 197.033,228.593 197.802 C 228.815 198.747,228.845 198.357,228.685 196.603 C 228.554 195.175,228.305 193.556,228.131 193.007 C 227.939 192.404,227.903 192.879,228.039 194.206 M99.368 196.164 C 99.221 197.569,99.126 199.726,99.157 200.958 C 99.194 202.433,99.329 201.698,99.553 198.801 C 99.926 193.978,99.794 192.092,99.368 196.164 M260.340 198.601 C 262.088 200.360,263.608 201.798,263.718 201.798 C 263.827 201.798,262.487 200.360,260.739 198.601 C 258.991 196.843,257.471 195.405,257.361 195.405 C 257.252 195.405,258.592 196.843,260.340 198.601 M167.173 199.800 C 167.173 201.668,167.241 202.433,167.326 201.499 C 167.410 200.564,167.410 199.036,167.326 198.102 C 167.241 197.168,167.173 197.932,167.173 199.800 M221.498 199.800 C 221.498 201.009,221.573 201.503,221.665 200.899 C 221.756 200.295,221.756 199.306,221.665 198.701 C 221.573 198.097,221.498 198.591,221.498 199.800 M159.949 199.800 C 159.949 200.789,160.027 201.194,160.122 200.699 C 160.217 200.205,160.217 199.396,160.122 198.901 C 160.027 198.407,159.949 198.811,159.949 199.800 M273.556 202.740 C 275.078 204.357,276.593 205.805,276.923 205.957 C 277.253 206.109,276.088 204.786,274.335 203.017 C 270.347 198.993,269.867 198.822,273.556 202.740 M228.372 202.997 C 228.215 204.343,228.173 205.529,228.276 205.632 C 228.380 205.736,228.590 204.717,228.743 203.368 C 228.895 202.019,228.938 200.833,228.838 200.733 C 228.738 200.632,228.528 201.651,228.372 202.997 M99.601 204.795 C 99.606 205.674,99.688 205.987,99.783 205.490 C 99.879 204.993,99.875 204.273,99.775 203.891 C 99.675 203.509,99.597 203.916,99.601 204.795 M269.131 207.792 C 271.320 209.990,273.202 211.788,273.312 211.788 C 273.422 211.788,271.720 209.990,269.530 207.792 C 267.341 205.594,265.460 203.796,265.350 203.796 C 265.240 203.796,266.941 205.594,269.131 207.792 M167.471 204.595 C 167.428 205.364,168.241 208.315,168.441 208.116 C 168.524 208.032,168.348 207.071,168.048 205.980 C 167.749 204.889,167.489 204.266,167.471 204.595 M107.112 206.485 C 107.088 207.100,108.341 210.274,108.532 210.083 C 108.609 210.006,108.325 209.054,107.901 207.968 C 107.477 206.882,107.122 206.215,107.112 206.485 M219.675 209.386 C 219.329 210.268,219.130 210.989,219.233 210.989 C 219.504 210.989,220.658 208.137,220.465 207.945 C 220.377 207.856,220.021 208.505,219.675 209.386 M161.467 209.882 C 161.421 210.355,162.723 213.434,162.896 213.262 C 162.983 213.175,162.703 212.313,162.274 211.347 C 161.846 210.381,161.482 209.722,161.467 209.882 M280.519 209.900 C 280.519 209.961,281.913 211.354,283.616 212.997 L 286.713 215.984 283.726 212.887 C 280.952 210.011,280.519 209.608,280.519 209.900 M169.431 210.742 C 169.431 211.171,170.620 213.387,170.850 213.387 C 170.960 213.387,170.752 212.802,170.389 212.088 C 169.647 210.629,169.431 210.325,169.431 210.742 M109.092 211.622 C 109.094 212.070,110.603 214.585,110.870 214.585 C 110.975 214.585,110.676 213.911,110.204 213.087 C 109.147 211.241,109.091 211.166,109.092 211.622 M101.527 212.388 C 101.527 212.607,101.784 213.237,102.098 213.786 C 102.412 214.336,102.669 214.605,102.669 214.386 C 102.669 214.166,102.412 213.536,102.098 212.987 C 101.784 212.438,101.527 212.168,101.527 212.388 M277.123 216.184 C 279.312 218.382,281.194 220.180,281.304 220.180 C 281.414 220.180,279.712 218.382,277.522 216.184 C 275.333 213.986,273.452 212.188,273.342 212.188 C 273.232 212.188,274.933 213.986,277.123 216.184 M111.403 215.589 C 111.629 216.031,112.235 216.749,112.750 217.184 C 113.653 217.948,113.651 217.934,112.693 216.780 C 111.102 214.864,110.968 214.740,111.403 215.589 M172.177 215.689 C 172.384 216.076,172.963 216.750,173.463 217.187 C 174.209 217.838,174.171 217.711,173.253 216.484 C 172.068 214.898,171.548 214.514,172.177 215.689 M164.359 216.384 C 164.697 217.043,165.273 217.942,165.638 218.382 C 166.004 218.821,165.899 218.462,165.405 217.582 C 164.316 215.643,163.500 214.708,164.359 216.384 M214.213 218.291 C 212.743 219.976,212.528 220.328,213.548 219.381 C 214.889 218.136,216.844 215.769,216.511 215.794 C 216.441 215.799,215.407 216.922,214.213 218.291 M223.488 217.483 C 222.707 218.492,222.440 219.113,222.913 218.821 C 223.386 218.528,224.333 216.983,224.039 216.983 C 223.948 216.983,223.700 217.208,223.488 217.483 M176.224 219.980 C 176.969 220.749,177.669 221.379,177.779 221.379 C 177.889 221.379,177.369 220.749,176.623 219.980 C 175.878 219.211,175.178 218.581,175.068 218.581 C 174.958 218.581,175.478 219.211,176.224 219.980 M152.197 219.680 C 151.700 220.314,151.714 220.328,152.348 219.831 C 153.004 219.317,153.047 219.531,153.047 223.294 C 153.047 227.195,153.017 227.330,151.948 228.168 C 151.344 228.642,151.119 228.900,151.449 228.740 C 153.284 227.852,153.447 227.393,153.447 223.115 C 153.447 218.979,153.225 218.370,152.197 219.680 M106.198 220.380 C 106.657 221.039,108.165 222.657,109.550 223.976 C 112.013 226.321,112.003 226.304,109.101 223.177 C 105.141 218.911,105.251 219.016,106.198 220.380 M116.427 220.888 C 116.743 221.399,119.081 223.129,119.081 222.852 C 119.081 222.753,118.421 222.169,117.614 221.553 C 116.807 220.938,116.273 220.638,116.427 220.888 M220.354 221.878 L 219.181 223.177 220.480 222.003 C 221.690 220.909,221.962 220.579,221.653 220.579 C 221.584 220.579,221.000 221.164,220.354 221.878 M284.915 224.376 C 286.994 226.464,288.785 228.172,288.895 228.172 C 289.005 228.172,287.394 226.464,285.315 224.376 C 283.235 222.288,281.444 220.579,281.334 220.579 C 281.225 220.579,282.836 222.288,284.915 224.376 M209.990 222.013 L 208.791 223.043 210.090 222.184 C 210.804 221.711,211.389 221.247,211.389 221.152 C 211.389 220.852,211.219 220.957,209.990 222.013 M170.030 223.776 C 171.335 225.095,172.492 226.174,172.602 226.174 C 172.712 226.174,171.734 225.095,170.430 223.776 C 169.125 222.458,167.967 221.379,167.857 221.379 C 167.747 221.379,168.725 222.458,170.030 223.776 M178.589 221.923 C 179.121 222.579,180.619 223.569,180.619 223.266 C 180.619 223.190,180.035 222.699,179.321 222.177 C 178.517 221.588,178.238 221.492,178.589 221.923 M217.164 225.074 L 215.584 226.772 217.183 225.375 C 218.062 224.607,218.952 223.843,219.161 223.677 C 219.397 223.490,219.390 223.377,219.142 223.377 C 218.923 223.377,218.033 224.141,217.164 225.074 M121.079 223.972 C 121.079 224.246,123.526 225.459,123.708 225.276 C 123.795 225.189,123.239 224.819,122.473 224.454 C 121.706 224.088,121.079 223.872,121.079 223.972 M144.256 224.575 C 143.487 224.997,143.001 225.349,143.177 225.358 C 143.600 225.380,145.854 224.208,145.854 223.966 C 145.854 223.704,145.831 223.713,144.256 224.575 M181.818 223.972 C 181.818 224.246,184.265 225.459,184.448 225.276 C 184.534 225.189,183.978 224.819,183.212 224.454 C 182.445 224.088,181.818 223.872,181.818 223.972 M127.672 226.688 C 128.176 226.991,130.245 227.168,133.267 227.168 C 136.288 227.168,138.358 226.991,138.861 226.688 C 139.535 226.284,139.409 226.253,138.062 226.491 C 137.183 226.646,135.025 226.773,133.267 226.773 C 131.508 226.773,129.351 226.646,128.472 226.491 C 127.124 226.253,126.999 226.284,127.672 226.688 M173.427 226.698 C 173.427 226.791,174.191 227.371,175.125 227.987 C 176.059 228.603,176.612 228.852,176.354 228.539 C 175.859 227.939,173.427 226.409,173.427 226.698 M190.451 227.050 C 192.343 227.386,197.166 227.372,198.775 227.026 C 199.420 226.887,197.461 226.773,194.421 226.773 C 191.141 226.773,189.527 226.886,190.451 227.050 M288.911 228.682 C 288.911 228.758,289.496 229.249,290.210 229.771 C 291.013 230.360,291.293 230.456,290.942 230.025 C 290.410 229.369,288.911 228.379,288.911 228.682 M117.915 229.919 C 118.327 230.287,120.679 231.368,120.679 231.189 C 120.679 230.959,118.464 229.770,118.035 229.770 C 117.878 229.770,117.824 229.837,117.915 229.919 M125.275 232.778 C 126.154 233.068,127.323 233.304,127.872 233.302 C 128.422 233.300,127.882 233.052,126.673 232.750 C 123.926 232.065,123.156 232.080,125.275 232.778 M139.461 232.967 C 138.669 233.220,138.628 233.287,139.261 233.287 C 139.700 233.287,140.509 233.143,141.059 232.967 C 141.850 232.714,141.892 232.647,141.259 232.647 C 140.819 232.647,140.010 232.791,139.461 232.967 M186.613 232.967 C 187.163 233.143,188.062 233.284,188.611 233.280 C 189.509 233.273,189.488 233.241,188.412 232.967 C 186.721 232.537,185.270 232.537,186.613 232.967 M200.599 232.967 C 199.808 233.220,199.767 233.287,200.400 233.287 C 200.839 233.287,201.648 233.143,202.198 232.967 C 202.989 232.714,203.030 232.647,202.398 232.647 C 201.958 232.647,201.149 232.791,200.599 232.967 M113.942 267.791 C 113.204 268.004,112.677 268.255,112.772 268.350 C 112.867 268.444,113.741 268.272,114.714 267.967 C 116.701 267.343,116.029 267.190,113.942 267.791 M126.060 267.948 C 127.151 268.248,128.112 268.425,128.195 268.341 C 128.395 268.142,125.444 267.328,124.675 267.371 C 124.346 267.389,124.969 267.649,126.060 267.948 M167.108 268.005 C 166.160 268.340,165.455 268.685,165.542 268.772 C 165.628 268.858,166.673 268.583,167.864 268.160 C 169.055 267.737,169.760 267.392,169.431 267.393 C 169.101 267.395,168.056 267.670,167.108 268.005 M178.621 267.932 C 180.446 268.635,181.164 268.624,179.620 267.918 C 178.961 267.616,178.152 267.374,177.822 267.381 C 177.493 267.388,177.852 267.636,178.621 267.932 M271.928 267.732 C 270.910 268.170,271.960 268.170,273.327 267.732 C 274.130 267.475,274.169 267.410,273.526 267.401 C 273.087 267.394,272.368 267.543,271.928 267.732 M281.918 267.671 C 283.154 268.200,285.225 268.608,284.515 268.183 C 284.186 267.986,283.287 267.713,282.517 267.576 C 281.574 267.409,281.379 267.440,281.918 267.671 M216.450 268.023 C 216.345 268.193,219.479 268.279,223.414 268.214 L 230.569 268.097 230.569 300.866 L 230.569 333.635 227.073 333.777 L 223.576 333.919 227.173 333.892 L 230.769 333.866 230.769 300.899 L 230.769 267.932 223.706 267.823 C 219.820 267.763,216.556 267.853,216.450 268.023 M215.185 270.130 C 214.844 270.789,214.655 271.329,214.765 271.329 C 214.875 271.329,215.243 270.789,215.584 270.130 C 215.925 269.471,216.114 268.931,216.005 268.931 C 215.895 268.931,215.526 269.471,215.185 270.130 M162.837 270.365 L 161.638 271.395 162.937 270.535 C 163.651 270.063,164.236 269.598,164.236 269.503 C 164.236 269.204,164.067 269.308,162.837 270.365 M108.414 270.758 L 107.293 271.787 108.591 270.883 C 109.306 270.386,109.890 269.923,109.890 269.855 C 109.890 269.540,109.448 269.810,108.414 270.758 M264.911 271.686 C 263.716 272.761,262.827 273.712,262.937 273.797 C 263.047 273.883,264.107 273.003,265.292 271.842 C 267.998 269.191,267.783 269.103,264.911 271.686 M290.509 272.328 C 291.255 273.097,291.955 273.726,292.065 273.726 C 292.175 273.726,291.655 273.097,290.909 272.328 C 290.164 271.558,289.464 270.929,289.354 270.929 C 289.244 270.929,289.764 271.558,290.509 272.328 M135.438 273.127 C 137.796 275.822,138.142 276.142,137.164 274.725 C 136.709 274.066,135.741 272.987,135.013 272.328 C 134.035 271.442,134.146 271.651,135.438 273.127 M187.413 273.526 C 188.158 274.296,188.858 274.925,188.968 274.925 C 189.078 274.925,188.558 274.296,187.812 273.526 C 187.067 272.757,186.367 272.128,186.257 272.128 C 186.147 272.128,186.667 272.757,187.413 273.526 M121.079 273.685 C 122.507 273.853,124.126 274.119,124.675 274.277 C 125.570 274.534,125.594 274.514,124.906 274.087 C 124.484 273.824,122.866 273.558,121.310 273.495 L 118.482 273.380 121.079 273.685 M173.826 273.686 C 175.035 273.861,176.474 274.130,177.023 274.284 C 177.891 274.527,177.925 274.503,177.284 274.104 C 176.878 273.851,175.440 273.581,174.087 273.505 L 171.628 273.367 173.826 273.686 M274.582 273.761 C 272.608 274.364,273.210 274.504,275.624 274.003 C 277.094 273.699,278.325 273.692,279.734 273.980 C 280.927 274.225,281.592 274.240,281.369 274.016 C 280.815 273.462,276.136 273.286,274.582 273.761 M116.284 274.144 C 115.846 274.440,116.008 274.477,116.883 274.282 C 118.352 273.953,118.671 273.724,117.649 273.732 C 117.228 273.736,116.613 273.921,116.284 274.144 M157.443 275.724 C 156.973 276.384,156.679 276.923,156.789 276.923 C 156.899 276.923,157.373 276.384,157.842 275.724 C 158.312 275.065,158.606 274.525,158.496 274.525 C 158.386 274.525,157.912 275.065,157.443 275.724 M283.767 275.670 C 284.760 276.300,286.068 277.424,286.675 278.168 C 287.281 278.912,287.598 279.161,287.379 278.721 C 286.716 277.387,283.286 274.525,282.350 274.525 C 282.136 274.525,282.774 275.041,283.767 275.670 M165.511 276.782 L 163.636 278.640 165.634 276.914 C 166.733 275.965,167.707 275.129,167.799 275.057 C 167.890 274.984,167.835 274.925,167.676 274.925 C 167.516 274.925,166.542 275.761,165.511 276.782 M179.820 275.457 C 179.820 275.567,180.539 276.227,181.419 276.923 C 182.298 277.619,183.017 278.099,183.017 277.989 C 183.017 277.879,182.298 277.220,181.419 276.523 C 180.539 275.827,179.820 275.347,179.820 275.457 M260.939 276.923 C 260.491 277.802,260.214 278.521,260.323 278.521 C 260.433 278.521,260.890 277.802,261.339 276.923 C 261.787 276.044,262.064 275.325,261.954 275.325 C 261.844 275.325,261.388 276.044,260.939 276.923 M183.815 279.620 C 184.338 280.335,184.828 280.919,184.904 280.919 C 185.208 280.919,184.217 279.420,183.562 278.888 C 183.130 278.538,183.227 278.817,183.815 279.620 M162.960 279.620 C 162.256 280.440,161.728 281.319,161.939 281.319 C 162.021 281.319,162.486 280.779,162.974 280.120 C 163.937 278.817,163.928 278.493,162.960 279.620 M192.008 280.120 C 192.349 280.779,192.718 281.319,192.828 281.319 C 192.938 281.319,192.749 280.779,192.408 280.120 C 192.067 279.461,191.698 278.921,191.588 278.921 C 191.478 278.921,191.667 279.461,192.008 280.120 M266.714 280.557 C 266.363 281.236,266.146 281.863,266.233 281.950 C 266.319 282.037,266.689 281.481,267.055 280.714 C 267.877 278.991,267.592 278.859,266.714 280.557 M295.220 280.919 C 295.376 281.908,295.492 284.244,295.477 286.109 C 295.456 288.659,295.536 289.205,295.799 288.307 C 296.215 286.889,295.913 281.507,295.339 280.107 C 295.025 279.341,294.998 279.523,295.220 280.919 M107.742 282.733 C 107.605 283.090,107.508 283.682,107.527 284.049 C 107.546 284.415,107.720 284.185,107.913 283.537 C 108.290 282.275,108.157 281.651,107.742 282.733 M186.014 283.317 C 186.355 283.976,186.724 284.515,186.834 284.515 C 186.944 284.515,186.755 283.976,186.414 283.317 C 186.073 282.657,185.704 282.118,185.594 282.118 C 185.484 282.118,185.673 282.657,186.014 283.317 M140.752 284.116 C 140.752 284.885,140.834 285.200,140.935 284.815 C 141.035 284.431,141.035 283.801,140.935 283.417 C 140.834 283.032,140.752 283.347,140.752 284.116 M265.854 284.915 C 265.854 286.124,265.929 286.618,266.020 286.014 C 266.112 285.410,266.112 284.421,266.020 283.816 C 265.929 283.212,265.854 283.706,265.854 284.915 M194.060 284.915 C 194.194 285.465,194.550 286.454,194.850 287.113 C 195.289 288.076,195.348 288.115,195.151 287.313 C 195.016 286.763,194.661 285.774,194.360 285.115 C 193.922 284.152,193.863 284.113,194.060 284.915 M152.328 285.994 C 151.736 287.921,152.023 288.207,152.647 286.314 C 152.911 285.515,153.049 284.784,152.954 284.689 C 152.859 284.594,152.577 285.181,152.328 285.994 M107.139 285.799 C 107.093 286.880,107.086 286.882,103.596 287.015 L 100.100 287.148 103.609 287.231 C 107.297 287.317,107.798 287.078,107.373 285.438 C 107.249 284.958,107.170 285.080,107.139 285.799 M133.975 286.513 C 133.975 287.502,134.053 287.907,134.148 287.413 C 134.243 286.918,134.243 286.109,134.148 285.614 C 134.053 285.120,133.975 285.524,133.975 286.513 M140.760 289.111 C 140.765 289.990,140.846 290.303,140.942 289.806 C 141.038 289.308,141.034 288.589,140.934 288.207 C 140.834 287.825,140.756 288.232,140.760 289.111 M188.280 288.911 C 188.300 289.949,188.929 291.655,188.943 290.709 C 188.950 290.270,188.800 289.550,188.611 289.111 C 188.401 288.621,188.273 288.544,188.280 288.911 M133.044 290.915 C 132.702 291.984,132.554 292.777,132.715 292.678 C 133.110 292.434,133.964 289.798,133.798 289.337 C 133.726 289.136,133.386 289.846,133.044 290.915 M158.511 289.211 C 158.414 289.376,158.226 290.320,158.093 291.309 C 157.813 293.396,158.054 293.055,158.586 290.609 C 158.936 289.004,158.911 288.536,158.511 289.211 M260.140 291.462 C 260.140 291.891,261.329 294.106,261.559 294.106 C 261.669 294.106,261.462 293.521,261.098 292.807 C 260.357 291.349,260.140 291.045,260.140 291.462 M130.573 295.748 C 129.971 296.603,129.557 297.303,129.654 297.303 C 129.939 297.303,131.994 294.497,131.824 294.339 C 131.738 294.259,131.176 294.894,130.573 295.748 M150.109 296.204 C 149.797 298.803,149.833 303.639,150.185 306.294 C 150.336 307.438,150.450 305.262,150.450 301.199 C 150.450 293.240,150.455 293.322,150.109 296.204 M138.861 295.704 C 138.520 296.364,138.331 296.903,138.441 296.903 C 138.551 296.903,138.920 296.364,139.261 295.704 C 139.602 295.045,139.791 294.505,139.681 294.505 C 139.571 294.505,139.202 295.045,138.861 295.704 M196.648 296.611 C 196.698 297.869,196.835 298.803,196.951 298.687 C 197.200 298.438,197.019 294.793,196.744 294.515 C 196.640 294.410,196.597 295.353,196.648 296.611 M263.736 297.103 C 264.482 297.872,265.182 298.501,265.292 298.501 C 265.402 298.501,264.881 297.872,264.136 297.103 C 263.390 296.334,262.690 295.704,262.580 295.704 C 262.471 295.704,262.991 296.334,263.736 297.103 M290.690 297.403 L 289.111 299.101 290.809 297.521 C 292.389 296.052,292.691 295.704,292.389 295.704 C 292.324 295.704,291.559 296.469,290.690 297.403 M274.664 296.597 C 274.917 296.759,276.204 296.891,277.522 296.891 C 278.841 296.891,280.128 296.759,280.381 296.597 C 280.635 296.436,279.349 296.304,277.522 296.304 C 275.696 296.304,274.410 296.436,274.664 296.597 M157.136 297.702 C 157.136 298.472,157.218 298.786,157.318 298.402 C 157.419 298.017,157.419 297.388,157.318 297.003 C 157.218 296.618,157.136 296.933,157.136 297.702 M137.007 298.801 C 135.858 300.189,135.370 300.899,135.568 300.899 C 135.679 300.899,136.249 300.270,136.836 299.500 C 137.925 298.073,138.057 297.534,137.007 298.801 M189.938 300.899 C 189.938 302.328,190.011 302.912,190.099 302.198 C 190.188 301.484,190.188 300.315,190.099 299.600 C 190.011 298.886,189.938 299.471,189.938 300.899 M266.093 299.013 C 266.581 299.635,266.556 299.803,265.893 300.334 C 265.174 300.912,265.182 300.921,266.034 300.507 C 267.115 299.983,267.164 299.580,266.234 298.850 C 265.597 298.351,265.585 298.366,266.093 299.013 M197.112 300.899 C 197.112 301.888,197.190 302.293,197.285 301.798 C 197.380 301.304,197.380 300.495,197.285 300.000 C 197.190 299.505,197.112 299.910,197.112 300.899 M290.310 301.178 C 291.597 302.492,294.186 304.538,293.307 303.546 C 292.757 302.926,291.768 302.048,291.109 301.595 C 290.450 301.141,290.090 300.953,290.310 301.178 M262.297 302.997 C 260.547 305.016,260.027 305.694,260.230 305.694 C 260.347 305.694,261.106 304.885,261.917 303.896 C 263.418 302.064,263.715 301.361,262.297 302.997 M274.839 302.825 C 274.462 302.975,275.568 303.097,277.297 303.097 C 279.025 303.097,280.233 302.965,279.980 302.803 C 279.412 302.440,275.771 302.456,274.839 302.825 M157.136 304.096 C 157.136 304.865,157.218 305.180,157.318 304.795 C 157.419 304.411,157.419 303.781,157.318 303.397 C 157.218 303.012,157.136 303.327,157.136 304.096 M196.764 304.254 C 196.646 304.560,196.612 305.504,196.687 306.352 C 196.813 307.779,196.837 307.738,197.013 305.794 C 197.207 303.652,197.144 303.264,196.764 304.254 M283.716 304.536 C 284.486 304.996,285.832 306.030,286.708 306.832 C 287.838 307.868,288.012 307.957,287.307 307.139 C 286.133 305.775,283.382 303.696,282.757 303.698 C 282.515 303.699,282.947 304.076,283.716 304.536 M131.244 305.794 L 130.070 307.093 131.369 305.919 C 132.579 304.825,132.851 304.496,132.542 304.496 C 132.474 304.496,131.889 305.080,131.244 305.794 M121.254 306.919 C 120.609 307.592,120.351 308.034,120.680 307.901 C 121.217 307.683,122.922 305.694,122.571 305.694 C 122.492 305.694,121.899 306.245,121.254 306.919 M295.583 307.487 C 295.948 308.254,296.318 308.810,296.405 308.723 C 296.588 308.541,295.375 306.094,295.101 306.094 C 295.000 306.094,295.217 306.721,295.583 307.487 M128.846 308.591 L 127.672 309.890 128.971 308.716 C 130.182 307.622,130.453 307.293,130.145 307.293 C 130.076 307.293,129.492 307.877,128.846 308.591 M119.082 309.489 C 118.567 310.038,118.221 310.553,118.313 310.635 C 118.406 310.717,118.900 310.268,119.411 309.638 C 120.555 308.227,120.354 308.136,119.082 309.489 M126.448 311.389 L 125.275 312.687 126.573 311.514 C 127.784 310.420,128.056 310.090,127.747 310.090 C 127.678 310.090,127.094 310.674,126.448 311.389 M188.284 312.161 C 188.047 313.095,187.922 313.929,188.006 314.013 C 188.090 314.098,188.363 313.411,188.611 312.488 C 188.860 311.564,188.985 310.730,188.890 310.635 C 188.794 310.539,188.522 311.226,188.284 312.161 M289.748 311.922 C 290.349 314.220,290.541 314.498,290.279 312.687 C 290.152 311.808,289.888 310.924,289.693 310.723 C 289.498 310.522,289.523 311.062,289.748 311.922 M113.699 315.984 C 111.573 318.566,110.521 319.941,111.360 319.040 C 113.408 316.841,117.985 311.289,117.750 311.289 C 117.648 311.289,115.824 313.402,113.699 315.984 M264.667 315.485 C 264.668 317.023,264.741 317.603,264.827 316.774 C 264.914 315.945,264.912 314.686,264.824 313.977 C 264.736 313.268,264.665 313.946,264.667 315.485 M257.466 315.485 C 257.469 316.803,257.543 317.294,257.632 316.576 C 257.721 315.858,257.719 314.779,257.628 314.179 C 257.537 313.578,257.464 314.166,257.466 315.485 M297.427 315.485 C 297.429 316.803,297.503 317.294,297.592 316.576 C 297.681 315.858,297.679 314.779,297.588 314.179 C 297.497 313.578,297.424 314.166,297.427 315.485 M152.077 315.285 C 152.224 315.834,152.511 316.553,152.715 316.883 C 152.972 317.300,153.004 317.178,152.818 316.484 C 152.671 315.934,152.384 315.215,152.180 314.885 C 151.923 314.469,151.891 314.590,152.077 315.285 M194.250 316.528 C 194.004 317.234,193.873 317.882,193.958 317.967 C 194.043 318.053,194.315 317.545,194.561 316.839 C 194.807 316.133,194.939 315.485,194.853 315.399 C 194.768 315.314,194.496 315.822,194.250 316.528 M186.092 318.287 C 185.727 319.053,185.510 319.680,185.611 319.680 C 185.884 319.680,187.097 317.234,186.914 317.051 C 186.828 316.964,186.458 317.520,186.092 318.287 M289.410 320.180 C 288.981 321.354,288.991 321.404,289.523 320.703 C 290.031 320.032,290.331 318.881,289.998 318.881 C 289.936 318.881,289.672 319.466,289.410 320.180 M154.446 321.279 C 154.787 321.938,155.155 322.478,155.265 322.478 C 155.375 322.478,155.186 321.938,154.845 321.279 C 154.504 320.619,154.135 320.080,154.025 320.080 C 153.916 320.080,154.105 320.619,154.446 321.279 M162.183 321.079 C 162.791 322.330,165.344 325.158,166.753 326.142 C 167.499 326.664,167.103 326.128,165.802 324.857 C 164.576 323.658,163.173 322.138,162.683 321.479 C 162.194 320.819,161.969 320.639,162.183 321.079 M258.190 320.879 C 258.183 321.209,258.425 322.018,258.727 322.677 C 259.433 324.221,259.444 323.503,258.741 321.678 C 258.445 320.909,258.197 320.549,258.190 320.879 M108.639 321.978 C 106.307 324.540,102.931 328.602,103.333 328.363 C 103.823 328.071,110.032 320.879,109.794 320.879 C 109.709 320.879,109.190 321.374,108.639 321.978 M191.608 322.478 C 191.267 323.137,191.078 323.676,191.188 323.676 C 191.298 323.676,191.667 323.137,192.008 322.478 C 192.349 321.818,192.538 321.279,192.428 321.279 C 192.318 321.279,191.949 321.818,191.608 322.478 M266.481 322.331 C 266.993 323.346,270.837 326.873,271.432 326.873 C 271.661 326.873,271.132 326.354,270.257 325.720 C 269.382 325.086,268.077 323.873,267.358 323.023 C 266.639 322.174,266.245 321.862,266.481 322.331 M285.935 324.746 C 284.627 325.978,283.908 326.795,284.336 326.561 C 285.095 326.146,288.859 322.463,288.495 322.492 C 288.394 322.500,287.242 323.515,285.935 324.746 M114.860 324.975 L 113.686 326.274 114.985 325.100 C 116.196 324.006,116.467 323.676,116.159 323.676 C 116.090 323.676,115.505 324.261,114.860 324.975 M180.885 325.300 C 179.822 326.165,179.124 326.873,179.335 326.873 C 179.545 326.873,180.505 326.161,181.467 325.291 C 183.711 323.263,183.382 323.268,180.885 325.300 M157.441 325.974 C 157.964 326.688,158.454 327.273,158.531 327.273 C 158.834 327.273,157.843 325.774,157.188 325.242 C 156.757 324.891,156.853 325.170,157.441 325.974 M260.841 326.673 C 261.298 327.333,262.445 328.591,263.392 329.471 C 264.850 330.826,264.784 330.705,262.956 328.671 C 260.066 325.458,259.873 325.276,260.841 326.673 M186.798 328.971 L 184.815 331.069 186.913 329.086 C 188.067 327.995,189.011 327.051,189.011 326.988 C 189.011 326.690,188.641 327.022,186.798 328.971 M292.682 328.172 L 291.508 329.471 292.807 328.297 C 294.018 327.203,294.290 326.873,293.981 326.873 C 293.912 326.873,293.328 327.458,292.682 328.172 M169.760 327.762 C 170.375 328.377,174.349 328.580,176.164 328.090 C 178.528 327.451,178.110 327.259,175.524 327.795 C 174.055 328.099,172.824 328.106,171.415 327.818 C 170.309 327.591,169.564 327.566,169.760 327.762 M273.327 327.654 C 273.656 327.877,274.271 328.062,274.692 328.066 C 275.714 328.074,275.395 327.845,273.926 327.517 C 273.051 327.321,272.889 327.358,273.327 327.654 M281.223 327.502 C 281.097 327.628,279.763 327.888,278.259 328.080 L 275.524 328.429 278.167 328.301 C 280.303 328.197,283.478 327.330,281.885 327.285 C 281.647 327.278,281.349 327.376,281.223 327.502 M101.673 330.170 L 100.500 331.469 101.798 330.295 C 103.009 329.201,103.281 328.871,102.972 328.871 C 102.903 328.871,102.319 329.456,101.673 330.170 M161.439 330.215 C 161.439 330.325,161.978 330.799,162.637 331.269 C 163.297 331.738,163.836 332.032,163.836 331.923 C 163.836 331.813,163.297 331.339,162.637 330.869 C 161.978 330.400,161.439 330.105,161.439 330.215 M289.392 331.041 C 287.536 332.353,287.275 332.728,288.842 331.830 C 289.573 331.412,290.359 330.844,290.589 330.569 C 291.180 329.863,290.903 329.972,289.392 331.041 M265.508 331.227 C 265.657 331.467,266.150 331.863,266.604 332.106 C 267.195 332.422,267.352 332.423,267.159 332.110 C 267.010 331.869,266.517 331.474,266.063 331.231 C 265.472 330.915,265.315 330.913,265.508 331.227 M99.570 332.593 C 99.092 333.102,98.701 333.641,98.701 333.792 C 98.701 333.943,108.277 334.023,119.980 333.970 L 141.259 333.873 120.114 333.766 L 98.968 333.659 99.903 332.664 C 100.418 332.116,100.749 331.668,100.639 331.668 C 100.529 331.668,100.048 332.085,99.570 332.593 M167.632 333.881 C 168.292 334.182,169.101 334.424,169.431 334.417 C 169.760 334.410,169.401 334.162,168.631 333.866 C 166.807 333.164,166.089 333.174,167.632 333.881 M178.422 333.877 C 177.542 334.167,177.183 334.410,177.622 334.417 C 178.062 334.424,178.961 334.182,179.620 333.881 C 181.131 333.189,180.515 333.187,178.422 333.877 M270.130 333.615 C 270.460 333.813,271.359 334.086,272.128 334.222 C 273.071 334.389,273.266 334.358,272.727 334.127 C 271.492 333.598,269.420 333.190,270.130 333.615 M283.117 333.877 C 282.238 334.167,281.878 334.410,282.318 334.417 C 282.757 334.424,283.656 334.182,284.316 333.881 C 285.826 333.189,285.210 333.187,283.117 333.877 " stroke="none" fill="#d12c55" fill-rule="evenodd"></path><path id="path2" d="M233.151 62.837 C 233.046 63.112,233.007 78.621,233.064 97.303 L 233.167 131.269 236.763 131.291 L 240.360 131.314 236.863 131.176 L 233.367 131.039 233.367 96.818 L 233.367 62.598 234.466 63.567 L 235.564 64.535 234.596 63.437 C 233.492 62.185,233.412 62.152,233.151 62.837 M183.727 64.229 C 184.667 64.314,186.105 64.312,186.924 64.227 C 187.742 64.141,186.973 64.072,185.215 64.073 C 183.457 64.075,182.787 64.145,183.727 64.229 M240.559 70.130 C 241.753 71.339,242.820 72.328,242.930 72.328 C 243.040 72.328,242.153 71.339,240.959 70.130 C 239.765 68.921,238.699 67.932,238.589 67.932 C 238.479 67.932,239.366 68.921,240.559 70.130 M187.113 71.404 C 187.498 71.505,188.127 71.505,188.511 71.404 C 188.896 71.304,188.581 71.222,187.812 71.222 C 187.043 71.222,186.728 71.304,187.113 71.404 M115.996 72.222 C 117.047 72.305,118.665 72.304,119.592 72.220 C 120.520 72.136,119.660 72.069,117.682 72.070 C 115.704 72.071,114.945 72.140,115.996 72.222 M249.750 79.720 C 251.166 81.149,252.414 82.318,252.524 82.318 C 252.634 82.318,251.566 81.149,250.150 79.720 C 248.734 78.292,247.486 77.123,247.376 77.123 C 247.266 77.123,248.334 78.292,249.750 79.720 M166.015 79.221 L 164.436 80.919 166.134 79.339 C 167.713 77.870,168.016 77.522,167.713 77.522 C 167.648 77.522,166.884 78.287,166.015 79.221 M133.986 83.516 C 133.986 84.725,134.061 85.220,134.152 84.615 C 134.244 84.011,134.244 83.022,134.152 82.418 C 134.061 81.813,133.986 82.308,133.986 83.516 M141.567 83.516 C 141.567 84.505,141.645 84.910,141.741 84.416 C 141.836 83.921,141.836 83.112,141.741 82.617 C 141.645 82.123,141.567 82.527,141.567 83.516 M245.754 86.114 C 247.170 87.542,248.418 88.711,248.528 88.711 C 248.638 88.711,247.570 87.542,246.154 86.114 C 244.738 84.685,243.490 83.516,243.380 83.516 C 243.270 83.516,244.338 84.685,245.754 86.114 M257.343 87.712 C 258.759 89.141,260.007 90.310,260.117 90.310 C 260.227 90.310,259.158 89.141,257.742 87.712 C 256.326 86.284,255.078 85.115,254.968 85.115 C 254.858 85.115,255.927 86.284,257.343 87.712 M264.935 95.704 C 266.351 97.133,267.599 98.302,267.709 98.302 C 267.819 98.302,266.751 97.133,265.335 95.704 C 263.919 94.276,262.670 93.107,262.561 93.107 C 262.451 93.107,263.519 94.276,264.935 95.704 M255.145 95.904 C 256.227 97.003,257.203 97.902,257.313 97.902 C 257.423 97.902,256.627 97.003,255.544 95.904 C 254.462 94.805,253.487 93.906,253.377 93.906 C 253.267 93.906,254.062 94.805,255.145 95.904 M150.793 98.302 C 150.793 100.390,150.861 101.244,150.943 100.200 C 151.025 99.156,151.025 97.448,150.943 96.404 C 150.861 95.360,150.793 96.214,150.793 98.302 M115.984 95.399 C 117.028 95.481,118.736 95.481,119.780 95.399 C 120.824 95.316,119.970 95.249,117.882 95.249 C 115.794 95.249,114.940 95.316,115.984 95.399 M158.381 98.302 C 158.381 100.170,158.450 100.934,158.534 100.000 C 158.618 99.066,158.618 97.537,158.534 96.603 C 158.450 95.669,158.381 96.434,158.381 98.302 M122.383 102.185 C 122.991 102.277,123.890 102.274,124.381 102.179 C 124.873 102.085,124.376 102.009,123.277 102.012 C 122.178 102.015,121.776 102.093,122.383 102.185 M262.521 103.596 C 263.501 104.640,264.355 105.495,264.419 105.495 C 264.719 105.495,264.402 105.136,262.637 103.480 L 260.739 101.698 262.521 103.596 M274.326 105.495 C 275.408 106.593,276.384 107.493,276.493 107.493 C 276.603 107.493,275.808 106.593,274.725 105.495 C 273.643 104.396,272.667 103.497,272.558 103.497 C 272.448 103.497,273.243 104.396,274.326 105.495 M271.728 113.287 C 273.144 114.715,274.392 115.884,274.502 115.884 C 274.612 115.884,273.544 114.715,272.128 113.287 C 270.712 111.858,269.464 110.689,269.354 110.689 C 269.244 110.689,270.312 111.858,271.728 113.287 M282.118 113.686 C 283.312 114.895,284.378 115.884,284.488 115.884 C 284.598 115.884,283.711 114.895,282.517 113.686 C 281.324 112.478,280.257 111.489,280.147 111.489 C 280.037 111.489,280.924 112.478,282.118 113.686 M204.182 117.383 L 201.998 119.680 204.296 117.496 C 205.559 116.295,206.593 115.261,206.593 115.198 C 206.593 114.902,206.211 115.248,204.182 117.383 M279.720 121.678 C 281.136 123.107,282.385 124.276,282.494 124.276 C 282.604 124.276,281.536 123.107,280.120 121.678 C 278.704 120.250,277.456 119.081,277.346 119.081 C 277.236 119.081,278.304 120.250,279.720 121.678 M210.764 121.179 L 209.590 122.478 210.889 121.304 C 211.603 120.658,212.188 120.074,212.188 120.005 C 212.188 119.696,211.858 119.968,210.764 121.179 M184.116 125.364 C 184.830 125.453,185.999 125.453,186.713 125.364 C 187.428 125.275,186.843 125.203,185.415 125.203 C 183.986 125.203,183.402 125.275,184.116 125.364 M288.312 130.669 C 290.281 132.647,291.981 134.266,292.091 134.266 C 292.201 134.266,290.680 132.647,288.711 130.669 C 286.742 128.691,285.042 127.073,284.932 127.073 C 284.822 127.073,286.343 128.691,288.312 130.669 M108.605 131.364 C 109.766 131.445,111.564 131.444,112.601 131.362 C 113.637 131.280,112.687 131.214,110.490 131.215 C 108.292 131.216,107.444 131.283,108.605 131.364 M237.005 164.336 C 237.101 164.391,238.165 165.335,239.369 166.434 L 241.558 168.432 239.575 166.334 C 238.485 165.180,237.421 164.236,237.211 164.236 C 237.001 164.236,236.909 164.281,237.005 164.336 M131.369 172.920 C 132.303 173.004,133.831 173.004,134.765 172.920 C 135.699 172.836,134.935 172.767,133.067 172.767 C 131.199 172.767,130.435 172.836,131.369 172.920 M192.907 172.920 C 193.841 173.004,195.370 173.004,196.304 172.920 C 197.238 172.836,196.474 172.767,194.605 172.767 C 192.737 172.767,191.973 172.836,192.907 172.920 M247.952 175.425 C 249.034 176.523,250.010 177.423,250.120 177.423 C 250.230 177.423,249.434 176.523,248.352 175.425 C 247.269 174.326,246.294 173.427,246.184 173.427 C 246.074 173.427,246.870 174.326,247.952 175.425 M218.565 175.524 C 219.545 176.568,220.399 177.423,220.463 177.423 C 220.763 177.423,220.446 177.064,218.681 175.408 L 216.783 173.626 218.565 175.524 M114.685 180.420 C 113.715 181.409,113.010 182.218,113.120 182.218 C 113.230 182.218,114.114 181.409,115.085 180.420 C 116.056 179.431,116.760 178.621,116.650 178.621 C 116.540 178.621,115.656 179.431,114.685 180.420 M151.936 180.033 C 152.534 180.662,153.094 181.096,153.182 180.998 C 153.270 180.900,152.781 180.385,152.095 179.855 L 150.849 178.890 151.936 180.033 M175.403 180.519 L 174.026 182.018 175.524 180.641 C 176.349 179.883,177.023 179.209,177.023 179.142 C 177.023 178.837,176.685 179.125,175.403 180.519 M256.344 184.216 C 257.870 185.754,259.209 187.013,259.319 187.013 C 259.429 187.013,258.270 185.754,256.743 184.216 C 255.217 182.677,253.878 181.419,253.768 181.419 C 253.658 181.419,254.817 182.677,256.344 184.216 M244.339 182.717 C 244.234 182.992,244.196 194.456,244.255 208.192 L 244.362 233.167 244.459 207.814 L 244.555 182.461 246.054 183.838 L 247.552 185.215 246.175 183.716 C 244.632 182.037,244.605 182.022,244.339 182.717 M109.272 187.849 C 108.920 188.529,108.703 189.156,108.790 189.243 C 108.877 189.330,109.247 188.773,109.612 188.007 C 110.434 186.284,110.149 186.152,109.272 187.849 M252.947 191.209 C 254.363 192.637,255.611 193.806,255.721 193.806 C 255.831 193.806,254.763 192.637,253.347 191.209 C 251.931 189.780,250.682 188.611,250.573 188.611 C 250.463 188.611,251.531 189.780,252.947 191.209 M264.336 192.607 C 265.418 193.706,266.394 194.605,266.503 194.605 C 266.613 194.605,265.818 193.706,264.735 192.607 C 263.653 191.508,262.677 190.609,262.568 190.609 C 262.458 190.609,263.253 191.508,264.336 192.607 M159.941 196.803 C 159.945 197.682,160.027 197.995,160.123 197.498 C 160.218 197.001,160.215 196.281,160.115 195.899 C 160.015 195.517,159.936 195.924,159.941 196.803 M167.525 196.603 C 167.525 197.373,167.608 197.687,167.708 197.303 C 167.809 196.918,167.809 196.289,167.708 195.904 C 167.608 195.519,167.525 195.834,167.525 196.603 M262.338 200.999 C 263.864 202.537,265.203 203.796,265.313 203.796 C 265.423 203.796,264.264 202.537,262.737 200.999 C 261.211 199.461,259.872 198.202,259.762 198.202 C 259.652 198.202,260.811 199.461,262.338 200.999 M272.927 201.598 C 274.786 203.467,276.396 204.995,276.506 204.995 C 276.616 204.995,275.185 203.467,273.327 201.598 C 271.468 199.730,269.858 198.202,269.748 198.202 C 269.638 198.202,271.069 199.730,272.927 201.598 M106.386 199.800 C 106.386 200.569,106.469 200.884,106.569 200.500 C 106.670 200.115,106.670 199.486,106.569 199.101 C 106.469 198.716,106.386 199.031,106.386 199.800 M159.941 202.797 C 159.945 203.676,160.027 203.989,160.123 203.492 C 160.218 202.995,160.215 202.275,160.115 201.893 C 160.015 201.511,159.936 201.918,159.941 202.797 M167.525 202.997 C 167.525 203.766,167.608 204.081,167.708 203.696 C 167.809 203.312,167.809 202.682,167.708 202.298 C 167.608 201.913,167.525 202.228,167.525 202.997 M270.330 209.391 C 271.856 210.929,273.195 212.188,273.305 212.188 C 273.415 212.188,272.256 210.929,270.729 209.391 C 269.203 207.852,267.864 206.593,267.754 206.593 C 267.644 206.593,268.803 207.852,270.330 209.391 M281.319 210.390 C 282.735 211.818,283.983 212.987,284.093 212.987 C 284.203 212.987,283.134 211.818,281.718 210.390 C 280.302 208.961,279.054 207.792,278.944 207.792 C 278.834 207.792,279.903 208.961,281.319 210.390 M225.175 214.985 C 224.834 215.644,224.645 216.184,224.755 216.184 C 224.865 216.184,225.233 215.644,225.574 214.985 C 225.915 214.326,226.104 213.786,225.995 213.786 C 225.885 213.786,225.516 214.326,225.175 214.985 M278.322 217.782 C 279.848 219.321,281.187 220.579,281.297 220.579 C 281.407 220.579,280.248 219.321,278.721 217.782 C 277.195 216.244,275.856 214.985,275.746 214.985 C 275.636 214.985,276.795 216.244,278.322 217.782 M213.172 219.081 L 211.189 221.179 213.287 219.196 C 215.236 217.353,215.568 216.983,215.270 216.983 C 215.206 216.983,214.262 217.927,213.172 219.081 M108.691 223.576 C 109.885 224.785,110.952 225.774,111.062 225.774 C 111.172 225.774,110.285 224.785,109.091 223.576 C 107.897 222.368,106.830 221.379,106.721 221.379 C 106.611 221.379,107.498 222.368,108.691 223.576 M169.813 223.876 C 171.469 225.640,171.828 225.958,171.828 225.658 C 171.828 225.593,170.974 224.739,169.930 223.760 L 168.032 221.978 169.813 223.876 M286.713 226.573 C 287.796 227.672,288.771 228.571,288.881 228.571 C 288.991 228.571,288.195 227.672,287.113 226.573 C 286.031 225.475,285.055 224.575,284.945 224.575 C 284.835 224.575,285.631 225.475,286.713 226.573 M131.779 226.867 C 132.719 226.951,134.157 226.950,134.976 226.864 C 135.794 226.778,135.025 226.709,133.267 226.710 C 131.508 226.712,130.839 226.782,131.779 226.867 M192.907 226.866 C 193.841 226.950,195.370 226.950,196.304 226.866 C 197.238 226.782,196.474 226.713,194.605 226.713 C 192.737 226.713,191.973 226.782,192.907 226.866 M179.853 267.881 C 180.265 268.249,182.617 269.330,182.617 269.151 C 182.617 268.921,180.402 267.732,179.973 267.732 C 179.816 267.732,179.762 267.799,179.853 267.881 M186.813 272.527 C 187.672 273.407,188.464 274.126,188.574 274.126 C 188.684 274.126,188.071 273.407,187.213 272.527 C 186.354 271.648,185.562 270.929,185.452 270.929 C 185.342 270.929,185.955 271.648,186.813 272.527 M119.381 274.015 C 120.095 274.104,121.264 274.104,121.978 274.015 C 122.692 273.927,122.108 273.854,120.679 273.854 C 119.251 273.854,118.666 273.927,119.381 274.015 M172.328 274.012 C 172.932 274.104,173.921 274.104,174.525 274.012 C 175.130 273.921,174.635 273.846,173.427 273.846 C 172.218 273.846,171.723 273.921,172.328 274.012 M276.623 274.012 C 277.228 274.104,278.217 274.104,278.821 274.012 C 279.426 273.921,278.931 273.846,277.722 273.846 C 276.513 273.846,276.019 273.921,276.623 274.012 M212.587 274.625 C 212.587 274.790,215.014 274.925,217.979 274.925 L 223.371 274.925 223.478 304.296 L 223.584 333.666 223.580 304.196 L 223.576 274.725 218.081 274.525 C 215.059 274.416,212.586 274.461,212.587 274.625 M284.515 276.249 C 284.515 276.318,285.100 276.902,285.814 277.548 L 287.113 278.721 285.939 277.423 C 284.845 276.212,284.515 275.940,284.515 276.249 M129.071 276.649 C 129.071 276.717,129.655 277.302,130.370 277.947 L 131.668 279.121 130.495 277.822 C 129.401 276.612,129.071 276.340,129.071 276.649 M259.050 282.917 C 259.050 283.906,259.128 284.311,259.223 283.816 C 259.318 283.322,259.318 282.512,259.223 282.018 C 259.128 281.523,259.050 281.928,259.050 282.917 M141.199 286.513 C 141.199 288.382,141.267 289.146,141.352 288.212 C 141.436 287.278,141.436 285.749,141.352 284.815 C 141.267 283.881,141.199 284.645,141.199 286.513 M100.059 285.514 L 100.100 287.512 103.459 287.630 C 105.307 287.694,106.962 287.604,107.138 287.430 C 107.313 287.255,105.856 287.170,103.901 287.241 L 100.346 287.368 100.182 285.442 L 100.018 283.516 100.059 285.514 M133.598 286.314 C 133.599 287.852,133.672 288.433,133.758 287.603 C 133.845 286.774,133.843 285.516,133.755 284.806 C 133.667 284.097,133.596 284.775,133.598 286.314 M259.042 287.512 C 259.046 288.392,259.128 288.704,259.224 288.207 C 259.319 287.710,259.316 286.991,259.216 286.609 C 259.116 286.227,259.037 286.633,259.042 287.512 M285.090 293.407 L 283.916 294.705 285.215 293.532 C 285.929 292.886,286.513 292.302,286.513 292.233 C 286.513 291.924,286.184 292.196,285.090 293.407 M157.535 296.104 C 157.535 296.873,157.618 297.188,157.718 296.803 C 157.819 296.419,157.819 295.789,157.718 295.405 C 157.618 295.020,157.535 295.335,157.535 296.104 M157.163 300.899 C 157.163 302.108,157.238 302.602,157.329 301.998 C 157.421 301.394,157.421 300.405,157.329 299.800 C 157.238 299.196,157.163 299.690,157.163 300.899 M157.535 305.694 C 157.535 306.464,157.618 306.778,157.718 306.394 C 157.819 306.009,157.819 305.380,157.718 304.995 C 157.618 304.610,157.535 304.925,157.535 305.694 M286.699 307.293 C 287.776 308.501,288.738 309.580,288.838 309.690 C 288.938 309.800,288.829 309.530,288.597 309.091 C 288.365 308.651,287.403 307.572,286.459 306.693 C 284.766 305.118,284.770 305.126,286.699 307.293 M268.307 306.993 L 267.133 308.292 268.432 307.118 C 269.146 306.473,269.730 305.888,269.730 305.819 C 269.730 305.511,269.401 305.782,268.307 306.993 M290.211 315.485 C 290.215 316.364,290.297 316.676,290.393 316.179 C 290.488 315.682,290.484 314.963,290.384 314.581 C 290.284 314.199,290.206 314.605,290.211 315.485 M268.332 324.076 C 269.190 324.955,269.982 325.674,270.092 325.674 C 270.202 325.674,269.590 324.955,268.731 324.076 C 267.873 323.197,267.081 322.478,266.971 322.478 C 266.861 322.478,267.473 323.197,268.332 324.076 M165.035 324.276 C 165.781 325.045,166.480 325.674,166.590 325.674 C 166.700 325.674,166.180 325.045,165.435 324.276 C 164.689 323.506,163.989 322.877,163.879 322.877 C 163.769 322.877,164.289 323.506,165.035 324.276 M114.547 325.606 C 113.091 327.215,113.338 327.248,127.673 327.362 C 135.255 327.423,141.459 327.338,141.459 327.173 C 141.459 327.008,135.345 326.873,127.872 326.873 C 120.400 326.873,114.286 326.752,114.286 326.605 C 114.286 326.457,114.583 326.008,114.947 325.606 C 115.311 325.204,115.518 324.875,115.409 324.875 C 115.299 324.875,114.911 325.204,114.547 325.606 M159.840 329.071 C 161.034 330.280,162.101 331.269,162.210 331.269 C 162.320 331.269,161.434 330.280,160.240 329.071 C 159.046 327.862,157.979 326.873,157.869 326.873 C 157.760 326.873,158.646 327.862,159.840 329.071 M262.521 328.971 C 264.177 330.735,264.535 331.053,264.535 330.753 C 264.535 330.688,263.681 329.834,262.637 328.854 L 260.739 327.073 262.521 328.971 M172.328 327.959 C 172.932 328.050,173.921 328.050,174.525 327.959 C 175.130 327.867,174.635 327.792,173.427 327.792 C 172.218 327.792,171.723 327.867,172.328 327.959 M276.431 327.962 C 277.149 328.051,278.228 328.049,278.828 327.958 C 279.429 327.867,278.841 327.794,277.522 327.796 C 276.204 327.798,275.713 327.873,276.431 327.962 M291.889 329.371 L 290.310 331.069 292.008 329.489 C 293.587 328.020,293.890 327.672,293.588 327.672 C 293.522 327.672,292.758 328.437,291.889 329.371 M141.196 331.069 C 141.197 332.827,141.268 333.497,141.352 332.557 C 141.436 331.617,141.435 330.178,141.349 329.360 C 141.264 328.542,141.194 329.311,141.196 331.069 M186.788 329.371 L 185.614 330.669 186.913 329.496 C 188.124 328.402,188.395 328.072,188.087 328.072 C 188.018 328.072,187.434 328.656,186.788 329.371 " stroke="none" fill="#e792a5" fill-rule="evenodd"></path><path id="path3" d="M188.711 64.212 C 189.096 64.312,189.725 64.312,190.110 64.212 C 190.495 64.111,190.180 64.029,189.411 64.029 C 188.641 64.029,188.327 64.111,188.711 64.212 M236.563 65.734 C 237.309 66.503,238.009 67.133,238.119 67.133 C 238.229 67.133,237.709 66.503,236.963 65.734 C 236.217 64.965,235.518 64.336,235.408 64.336 C 235.298 64.336,235.818 64.965,236.563 65.734 M106.484 98.302 C 106.484 116.653,106.533 124.161,106.593 114.985 C 106.653 105.809,106.653 90.794,106.593 81.618 C 106.533 72.443,106.484 79.950,106.484 98.302 M292.299 99.700 C 292.299 118.821,292.348 126.702,292.407 117.213 C 292.467 107.724,292.467 92.080,292.408 82.448 C 292.348 72.816,292.299 80.579,292.299 99.700 M184.116 71.411 C 184.610 71.506,185.420 71.506,185.914 71.411 C 186.409 71.316,186.004 71.238,185.015 71.238 C 184.026 71.238,183.621 71.316,184.116 71.411 M161.439 73.327 C 160.468 74.316,159.764 75.125,159.874 75.125 C 159.983 75.125,160.868 74.316,161.838 73.327 C 162.809 72.338,163.513 71.528,163.403 71.528 C 163.293 71.528,162.409 72.338,161.439 73.327 M114.462 83.716 C 114.462 90.090,114.517 92.641,114.585 89.386 C 114.652 86.131,114.652 80.916,114.584 77.798 C 114.517 74.679,114.462 77.343,114.462 83.716 M209.774 74.026 C 210.753 75.070,211.607 75.924,211.672 75.924 C 211.972 75.924,211.654 75.565,209.890 73.909 L 207.992 72.128 209.774 74.026 M245.155 74.725 C 246.460 76.044,247.617 77.123,247.727 77.123 C 247.837 77.123,246.859 76.044,245.554 74.725 C 244.250 73.407,243.092 72.328,242.982 72.328 C 242.872 72.328,243.850 73.407,245.155 74.725 M167.607 78.022 L 166.434 79.321 167.732 78.147 C 168.943 77.053,169.215 76.723,168.906 76.723 C 168.837 76.723,168.253 77.308,167.607 78.022 M202.198 77.248 C 202.198 77.317,202.782 77.901,203.497 78.547 L 204.795 79.720 203.622 78.422 C 202.528 77.211,202.198 76.939,202.198 77.248 M133.601 83.516 C 133.601 85.165,133.671 85.839,133.758 85.015 C 133.844 84.191,133.844 82.842,133.758 82.018 C 133.671 81.194,133.601 81.868,133.601 83.516 M240.656 106.394 L 240.753 131.668 240.859 106.522 L 240.965 81.375 242.261 82.546 L 243.556 83.716 242.383 82.418 C 241.737 81.703,241.063 81.119,240.884 81.119 C 240.706 81.119,240.603 92.493,240.656 106.394 M254.545 84.515 C 255.739 85.724,256.806 86.713,256.916 86.713 C 257.026 86.713,256.139 85.724,254.945 84.515 C 253.751 83.307,252.685 82.318,252.575 82.318 C 252.465 82.318,253.352 83.307,254.545 84.515 M249.750 90.509 C 250.496 91.279,251.196 91.908,251.306 91.908 C 251.416 91.908,250.895 91.279,250.150 90.509 C 249.404 89.740,248.704 89.111,248.594 89.111 C 248.485 89.111,249.005 89.740,249.750 90.509 M263.720 94.006 C 264.699 95.050,265.554 95.904,265.618 95.904 C 265.918 95.904,265.600 95.545,263.836 93.889 L 261.938 92.108 263.720 94.006 M219.931 98.302 C 219.931 100.829,219.996 101.863,220.076 100.599 C 220.155 99.336,220.155 97.268,220.076 96.004 C 219.996 94.740,219.931 95.774,219.931 98.302 M119.586 94.992 C 120.193 95.084,121.092 95.081,121.584 94.987 C 122.075 94.892,121.578 94.817,120.480 94.820 C 119.381 94.823,118.978 94.900,119.586 94.992 M136.445 96.803 L 134.865 98.501 136.563 96.922 C 137.498 96.053,138.262 95.289,138.262 95.224 C 138.262 94.921,137.914 95.224,136.445 96.803 M150.342 98.302 C 150.342 99.071,150.425 99.386,150.525 99.001 C 150.626 98.616,150.626 97.987,150.525 97.602 C 150.425 97.218,150.342 97.532,150.342 98.302 M259.341 100.500 C 260.086 101.269,260.786 101.898,260.896 101.898 C 261.006 101.898,260.486 101.269,259.740 100.500 C 258.995 99.730,258.295 99.101,258.185 99.101 C 258.075 99.101,258.595 99.730,259.341 100.500 M271.928 102.697 C 273.233 104.016,274.391 105.095,274.500 105.095 C 274.610 105.095,273.633 104.016,272.328 102.697 C 271.023 101.379,269.865 100.300,269.755 100.300 C 269.645 100.300,270.623 101.379,271.928 102.697 M114.468 102.799 C 114.362 103.075,114.325 109.684,114.386 117.485 L 114.496 131.668 114.591 117.196 L 114.685 102.723 119.181 102.596 L 123.676 102.469 119.168 102.383 C 115.855 102.320,114.609 102.431,114.468 102.799 M265.335 106.893 C 266.751 108.322,267.999 109.491,268.109 109.491 C 268.219 109.491,267.150 108.322,265.734 106.893 C 264.318 105.465,263.070 104.296,262.960 104.296 C 262.850 104.296,263.919 105.465,265.335 106.893 M278.921 110.090 C 280.337 111.518,281.585 112.687,281.695 112.687 C 281.805 112.687,280.737 111.518,279.321 110.090 C 277.905 108.661,276.656 107.493,276.547 107.493 C 276.437 107.493,277.505 108.661,278.921 110.090 M271.329 113.197 C 271.329 113.257,272.722 114.651,274.426 116.294 L 277.522 119.281 274.535 116.184 C 271.761 113.307,271.329 112.905,271.329 113.197 M160.839 122.677 C 161.922 123.776,162.897 124.675,163.007 124.675 C 163.117 124.675,162.321 123.776,161.239 122.677 C 160.156 121.578,159.181 120.679,159.071 120.679 C 158.961 120.679,159.757 121.578,160.839 122.677 M283.317 125.674 C 284.062 126.444,284.762 127.073,284.872 127.073 C 284.982 127.073,284.462 126.444,283.716 125.674 C 282.971 124.905,282.271 124.276,282.161 124.276 C 282.051 124.276,282.571 124.905,283.317 125.674 M236.661 198.501 L 236.759 233.167 236.863 198.701 C 236.921 179.745,237.090 164.236,237.239 164.236 C 237.389 164.236,237.972 164.640,238.536 165.135 L 239.560 166.034 238.592 164.935 C 236.475 162.534,236.556 161.124,236.661 198.501 M131.583 165.730 C 132.855 165.810,134.833 165.809,135.979 165.729 C 137.124 165.648,136.084 165.583,133.666 165.584 C 131.249 165.585,130.311 165.651,131.583 165.730 M192.308 165.730 C 193.571 165.809,195.639 165.809,196.903 165.730 C 198.167 165.651,197.133 165.586,194.605 165.586 C 192.078 165.586,191.044 165.651,192.308 165.730 M288.209 191.593 L 288.112 216.753 286.014 214.775 L 283.916 212.798 286.000 214.971 C 287.146 216.167,288.181 217.047,288.300 216.928 C 288.420 216.808,288.470 205.398,288.412 191.572 L 288.306 166.434 288.209 191.593 M245.554 172.627 C 247.081 174.166,248.420 175.425,248.530 175.425 C 248.640 175.425,247.481 174.166,245.954 172.627 C 244.427 171.089,243.088 169.830,242.978 169.830 C 242.869 169.830,244.028 171.089,245.554 172.627 M153.444 176.705 C 153.336 179.277,153.388 181.240,153.561 181.066 C 153.733 180.893,153.822 178.788,153.758 176.389 L 153.642 172.028 153.444 176.705 M170.804 174.725 L 169.630 176.024 170.929 174.850 C 171.643 174.205,172.228 173.620,172.228 173.552 C 172.228 173.243,171.898 173.515,170.804 174.725 M252.547 180.020 C 253.963 181.449,255.212 182.617,255.322 182.617 C 255.431 182.617,254.363 181.449,252.947 180.020 C 251.531 178.591,250.283 177.423,250.173 177.423 C 250.063 177.423,251.132 178.591,252.547 180.020 M244.652 207.692 L 244.749 232.767 244.855 208.008 L 244.961 183.248 247.456 185.630 L 249.950 188.012 247.364 185.315 C 245.942 183.831,244.728 182.617,244.667 182.617 C 244.606 182.617,244.599 193.901,244.652 207.692 M260.539 188.412 C 261.285 189.181,261.985 189.810,262.095 189.810 C 262.205 189.810,261.685 189.181,260.939 188.412 C 260.193 187.642,259.494 187.013,259.384 187.013 C 259.274 187.013,259.794 187.642,260.539 188.412 M100.279 189.666 C 100.058 190.246,99.952 190.794,100.043 190.885 C 100.133 190.976,100.399 190.501,100.632 189.831 C 101.152 188.340,100.838 188.194,100.279 189.666 M160.468 191.637 C 160.321 192.223,160.278 192.779,160.372 192.873 C 160.466 192.967,160.664 192.565,160.811 191.979 C 160.958 191.394,161.001 190.838,160.907 190.743 C 160.812 190.649,160.615 191.051,160.468 191.637 M255.728 194.306 C 256.707 195.350,257.562 196.204,257.626 196.204 C 257.926 196.204,257.608 195.845,255.844 194.189 L 253.946 192.408 255.728 194.306 M106.833 199.800 C 106.833 201.668,106.902 202.433,106.986 201.499 C 107.070 200.564,107.070 199.036,106.986 198.102 C 106.902 197.168,106.833 197.932,106.833 199.800 M221.119 199.800 C 221.119 201.668,221.187 202.433,221.272 201.499 C 221.356 200.564,221.356 199.036,221.272 198.102 C 221.187 197.168,221.119 197.932,221.119 199.800 M269.930 198.202 C 270.789 199.081,271.581 199.800,271.691 199.800 C 271.801 199.800,271.188 199.081,270.330 198.202 C 269.471 197.323,268.679 196.603,268.569 196.603 C 268.459 196.603,269.072 197.323,269.930 198.202 M167.552 199.800 C 167.552 201.009,167.627 201.503,167.719 200.899 C 167.810 200.295,167.810 199.306,167.719 198.701 C 167.627 198.097,167.552 198.591,167.552 199.800 M159.549 199.800 C 159.549 200.789,159.627 201.194,159.723 200.699 C 159.818 200.205,159.818 199.396,159.723 198.901 C 159.627 198.407,159.549 198.811,159.549 199.800 M265.135 204.196 C 266.440 205.514,267.597 206.593,267.707 206.593 C 267.817 206.593,266.839 205.514,265.534 204.196 C 264.230 202.877,263.072 201.798,262.962 201.798 C 262.852 201.798,263.830 202.877,265.135 204.196 M278.921 207.592 C 280.337 209.021,281.585 210.190,281.695 210.190 C 281.805 210.190,280.737 209.021,279.321 207.592 C 277.905 206.164,276.656 204.995,276.547 204.995 C 276.437 204.995,277.505 206.164,278.921 207.592 M100.118 209.890 C 100.267 210.385,100.554 210.965,100.755 211.180 C 100.956 211.394,100.918 210.990,100.671 210.281 C 100.165 208.829,99.698 208.499,100.118 209.890 M218.382 211.389 C 218.041 212.048,217.852 212.587,217.961 212.587 C 218.071 212.587,218.440 212.048,218.781 211.389 C 219.122 210.729,219.311 210.190,219.201 210.190 C 219.091 210.190,218.723 210.729,218.382 211.389 M274.126 213.586 C 274.871 214.356,275.571 214.985,275.681 214.985 C 275.791 214.985,275.271 214.356,274.525 213.586 C 273.780 212.817,273.080 212.188,272.970 212.188 C 272.860 212.188,273.380 212.817,274.126 213.586 M165.435 218.981 C 165.904 219.640,166.378 220.180,166.488 220.180 C 166.598 220.180,166.304 219.640,165.834 218.981 C 165.365 218.322,164.891 217.782,164.781 217.782 C 164.671 217.782,164.965 218.322,165.435 218.981 M153.444 222.896 L 153.642 227.572 153.758 223.211 C 153.822 220.812,153.733 218.708,153.561 218.534 C 153.388 218.361,153.336 220.323,153.444 222.896 M282.118 221.978 C 283.534 223.407,284.782 224.575,284.892 224.575 C 285.002 224.575,283.933 223.407,282.517 221.978 C 281.102 220.549,279.853 219.381,279.743 219.381 C 279.633 219.381,280.702 220.549,282.118 221.978 M286.513 226.683 C 286.513 226.744,287.907 228.137,289.610 229.780 L 292.707 232.767 289.720 229.670 C 286.946 226.794,286.513 226.391,286.513 226.683 M131.369 234.061 C 132.522 234.142,134.411 234.142,135.564 234.061 C 136.718 233.980,135.774 233.914,133.467 233.914 C 131.159 233.914,130.215 233.980,131.369 234.061 M192.308 234.062 C 193.571 234.141,195.639 234.141,196.903 234.062 C 198.167 233.982,197.133 233.917,194.605 233.917 C 192.078 233.917,191.044 233.982,192.308 234.062 M118.382 266.827 C 119.426 266.910,121.134 266.910,122.178 266.827 C 123.222 266.745,122.368 266.678,120.280 266.678 C 118.192 266.678,117.338 266.745,118.382 266.827 M171.940 266.828 C 172.991 266.910,174.609 266.909,175.537 266.825 C 176.464 266.742,175.604 266.674,173.626 266.675 C 171.648 266.677,170.890 266.745,171.940 266.828 M276.024 266.826 C 276.958 266.910,278.487 266.910,279.421 266.826 C 280.355 266.742,279.590 266.673,277.722 266.673 C 275.854 266.673,275.090 266.742,276.024 266.826 M231.160 300.899 C 231.160 319.251,231.209 326.758,231.269 317.582 C 231.328 308.407,231.328 293.392,231.269 284.216 C 231.209 275.040,231.160 282.547,231.160 300.899 M105.894 272.328 C 104.923 273.317,104.219 274.126,104.329 274.126 C 104.439 274.126,105.323 273.317,106.294 272.328 C 107.264 271.339,107.969 270.529,107.859 270.529 C 107.749 270.529,106.865 271.339,105.894 272.328 M135.048 272.228 C 136.704 273.992,137.063 274.309,137.063 274.009 C 137.063 273.945,136.209 273.091,135.165 272.111 L 133.267 270.330 135.048 272.228 M159.622 272.627 L 158.042 274.326 159.740 272.746 C 161.320 271.277,161.622 270.929,161.320 270.929 C 161.255 270.929,160.490 271.693,159.622 272.627 M215.067 275.221 C 216.541 275.298,219.059 275.298,220.662 275.222 C 222.265 275.146,221.059 275.083,217.982 275.083 C 214.905 275.082,213.594 275.144,215.067 275.221 M111.264 277.822 L 110.090 279.121 111.389 277.947 C 112.599 276.853,112.871 276.523,112.562 276.523 C 112.494 276.523,111.909 277.108,111.264 277.822 M181.019 277.048 C 181.019 277.117,181.603 277.701,182.318 278.347 L 183.616 279.520 182.443 278.222 C 181.349 277.011,181.019 276.739,181.019 277.048 M193.285 281.913 C 193.650 282.680,194.020 283.236,194.107 283.149 C 194.290 282.966,193.077 280.519,192.803 280.519 C 192.703 280.519,192.919 281.147,193.285 281.913 M288.409 284.116 C 288.525 285.544,288.685 286.788,288.765 286.880 C 289.060 287.216,288.844 283.091,288.527 282.318 C 288.334 281.848,288.286 282.591,288.409 284.116 M258.665 285.115 C 258.668 286.434,258.742 286.925,258.831 286.207 C 258.920 285.488,258.918 284.409,258.827 283.809 C 258.736 283.209,258.663 283.796,258.665 285.115 M266.227 284.915 C 266.227 285.684,266.309 285.999,266.409 285.614 C 266.510 285.230,266.510 284.600,266.409 284.216 C 266.309 283.831,266.227 284.146,266.227 284.915 M195.461 287.712 C 195.461 288.042,195.615 288.671,195.804 289.111 C 196.021 289.615,196.148 289.689,196.148 289.311 C 196.148 288.981,195.993 288.352,195.804 287.912 C 195.588 287.408,195.461 287.334,195.461 287.712 M150.878 289.139 C 150.731 289.725,150.688 290.281,150.782 290.375 C 150.876 290.470,151.073 290.068,151.220 289.482 C 151.367 288.896,151.410 288.340,151.316 288.246 C 151.222 288.152,151.025 288.554,150.878 289.139 M267.696 290.842 C 267.912 291.245,268.402 291.829,268.786 292.141 C 269.218 292.491,269.121 292.212,268.533 291.409 C 267.483 289.975,267.090 289.708,267.696 290.842 M276.424 296.386 C 276.918 296.481,277.727 296.481,278.222 296.386 C 278.716 296.291,278.312 296.213,277.323 296.213 C 276.334 296.213,275.929 296.291,276.424 296.386 M157.587 300.899 C 157.587 302.987,157.654 303.841,157.736 302.797 C 157.819 301.753,157.819 300.045,157.736 299.001 C 157.654 297.957,157.587 298.811,157.587 300.899 M189.555 300.899 C 189.555 302.987,189.622 303.841,189.704 302.797 C 189.787 301.753,189.787 300.045,189.704 299.001 C 189.622 297.957,189.555 298.811,189.555 300.899 M149.565 301.099 C 149.568 302.198,149.645 302.600,149.737 301.993 C 149.829 301.385,149.827 300.486,149.732 299.995 C 149.637 299.503,149.562 300.000,149.565 301.099 M292.890 302.997 C 294.546 304.761,294.905 305.079,294.905 304.779 C 294.905 304.714,294.051 303.860,293.007 302.880 L 291.109 301.099 292.890 302.997 M257.080 315.485 C 257.081 317.243,257.152 317.912,257.236 316.972 C 257.321 316.033,257.319 314.594,257.234 313.776 C 257.148 312.957,257.079 313.726,257.080 315.485 M297.837 315.684 C 297.837 317.333,297.907 318.007,297.993 317.183 C 298.080 316.359,298.080 315.010,297.993 314.186 C 297.907 313.362,297.837 314.036,297.837 315.684 M114.552 325.941 C 113.738 326.755,115.468 326.865,127.772 326.779 L 141.259 326.684 127.952 326.574 C 119.332 326.502,114.731 326.324,114.888 326.069 C 115.165 325.621,114.953 325.540,114.552 325.941 M159.441 329.071 C 160.186 329.840,160.886 330.470,160.996 330.470 C 161.106 330.470,160.586 329.840,159.840 329.071 C 159.095 328.302,158.395 327.672,158.285 327.672 C 158.175 327.672,158.695 328.302,159.441 329.071 M172.138 335.158 C 173.078 335.243,174.517 335.241,175.335 335.156 C 176.154 335.070,175.385 335.001,173.626 335.002 C 171.868 335.004,171.199 335.074,172.138 335.158 M275.824 335.159 C 276.868 335.241,278.576 335.241,279.620 335.159 C 280.664 335.077,279.810 335.009,277.722 335.009 C 275.634 335.009,274.780 335.077,275.824 335.159 " stroke="none" fill="#f5c3ce" fill-rule="evenodd"></path><path id="path4" d="M0.000 199.800 L 0.000 399.600 200.000 399.600 L 400.000 399.600 400.000 199.800 L 400.000 0.000 200.000 0.000 L 0.000 0.000 0.000 199.800 M235.823 64.592 C 236.999 65.832,239.041 67.965,240.360 69.332 C 241.678 70.699,245.904 75.122,249.750 79.163 C 253.596 83.203,258.721 88.575,261.139 91.100 C 263.556 93.625,267.602 97.853,270.130 100.495 C 272.657 103.138,276.928 107.593,279.620 110.396 L 284.515 115.492 284.515 90.314 L 284.515 65.135 288.511 65.135 L 292.507 65.135 292.507 99.700 C 292.507 127.505,292.408 134.266,291.996 134.266 C 291.715 134.266,290.525 133.232,289.351 131.968 C 288.177 130.704,285.834 128.232,284.145 126.474 C 279.936 122.093,262.055 103.401,261.549 102.853 C 260.911 102.162,249.480 90.188,244.997 85.514 L 240.972 81.319 240.966 106.394 L 240.959 131.469 236.963 131.469 L 232.967 131.469 232.967 96.903 C 232.967 76.800,233.117 62.338,233.325 62.338 C 233.522 62.338,234.646 63.352,235.823 64.592 M195.205 65.248 C 222.696 73.837,229.008 109.012,206.076 125.827 C 199.659 130.532,194.037 132.272,185.289 132.261 C 148.399 132.212,137.142 83.995,170.140 67.378 C 177.244 63.800,187.723 62.910,195.205 65.248 M127.923 65.710 C 139.487 68.161,145.377 81.776,139.616 92.739 C 136.169 99.298,130.490 102.208,120.380 102.596 L 114.685 102.815 114.685 117.142 L 114.685 131.469 110.490 131.469 L 106.294 131.469 106.294 98.302 L 106.294 65.135 115.784 65.142 C 122.387 65.147,126.081 65.320,127.923 65.710 M180.045 71.822 C 165.467 73.979,154.910 92.217,159.976 106.494 C 169.007 131.945,204.211 130.668,211.185 104.636 C 216.181 85.987,199.944 68.877,180.045 71.822 M114.685 83.755 L 114.685 95.182 118.981 94.919 C 130.277 94.230,133.267 91.837,133.267 83.485 C 133.267 75.266,129.239 72.326,117.982 72.327 L 114.685 72.328 114.685 83.755 M243.596 170.255 C 246.871 173.675,252.338 179.410,255.744 182.998 C 259.151 186.586,263.017 190.642,264.336 192.011 C 265.654 193.380,270.056 197.986,274.116 202.245 C 278.177 206.505,282.984 211.518,284.800 213.387 L 288.100 216.783 288.106 191.708 L 288.112 166.633 292.108 166.633 L 296.104 166.633 296.104 201.199 C 296.104 220.210,295.955 235.764,295.774 235.764 C 295.409 235.764,288.804 229.045,279.321 219.028 C 275.914 215.429,272.048 211.369,270.729 210.004 C 269.411 208.640,266.636 205.741,264.564 203.562 C 262.492 201.383,257.277 195.937,252.976 191.460 L 245.155 183.319 244.955 208.043 L 244.755 232.767 240.659 232.881 L 236.563 232.995 236.563 198.386 C 236.563 169.547,236.653 163.799,237.102 163.907 C 237.399 163.978,240.321 166.834,243.596 170.255 M139.860 166.049 C 145.728 167.250,152.072 170.022,153.540 172.027 C 153.896 172.512,153.949 180.783,153.599 181.133 C 153.401 181.331,150.705 179.516,149.850 178.609 C 145.686 174.191,133.338 171.822,126.194 174.072 C 100.866 182.047,100.748 217.249,126.023 225.426 C 133.268 227.770,146.087 225.395,149.850 221.012 C 150.554 220.192,153.395 218.264,153.599 218.467 C 153.949 218.817,153.896 227.089,153.540 227.572 C 152.259 229.317,145.426 232.345,140.470 233.365 C 124.820 236.585,107.775 227.999,101.874 213.923 C 101.428 212.859,100.888 211.671,100.675 211.284 C 98.678 207.659,98.644 191.600,100.627 188.841 C 100.796 188.605,101.363 187.343,101.887 186.036 C 107.458 172.126,124.844 162.975,139.860 166.049 M202.325 166.407 C 228.679 172.634,238.161 205.260,219.080 224.061 C 199.961 242.899,167.690 234.050,160.481 207.992 C 153.879 184.123,177.586 160.562,202.325 166.407 M189.610 173.280 C 164.815 179.686,159.678 210.221,181.263 222.893 C 206.151 237.503,233.048 206.443,215.503 183.353 C 209.914 175.998,197.613 171.213,189.610 173.280 M125.355 267.136 C 130.829 268.559,133.459 270.045,136.460 273.409 C 140.164 277.563,141.259 280.644,141.259 286.913 C 141.259 294.638,140.190 296.616,129.317 309.010 C 128.314 310.153,124.580 314.505,121.020 318.681 L 114.546 326.274 127.902 326.474 L 141.259 326.673 141.374 330.370 L 141.489 334.066 119.895 334.066 C 108.019 334.066,98.302 333.953,98.302 333.815 C 98.302 333.536,100.726 330.626,111.287 318.228 C 134.117 291.428,133.952 291.677,133.328 284.988 C 131.975 270.504,109.782 270.719,107.974 285.235 L 107.691 287.512 103.931 287.628 C 99.403 287.768,99.355 287.730,99.877 284.460 C 101.868 271.995,113.534 264.062,125.355 267.136 M178.936 267.304 C 200.902 273.983,204.165 318.744,183.671 332.238 C 178.007 335.968,168.013 336.092,163.745 332.486 C 163.466 332.249,162.393 331.429,161.361 330.662 C 151.211 323.120,146.664 301.956,151.857 286.429 C 156.946 271.212,167.433 263.806,178.936 267.304 M283.353 267.469 C 296.455 271.512,300.773 288.525,291.035 297.737 L 288.962 299.697 290.658 300.864 C 305.680 311.199,296.629 335.265,277.720 335.265 C 258.864 335.265,249.536 312.334,263.878 301.237 L 265.993 299.601 264.008 297.752 C 254.514 288.913,258.398 271.909,270.857 267.767 C 275.546 266.207,278.996 266.125,283.353 267.469 M231.369 300.899 L 231.369 334.066 227.373 334.066 L 223.377 334.066 223.377 304.695 L 223.377 275.325 217.982 275.325 C 211.629 275.325,211.798 275.528,214.286 270.902 L 215.984 267.743 223.676 267.738 L 231.369 267.732 231.369 300.899 M169.107 275.122 C 157.602 280.478,153.893 305.994,162.546 320.262 C 169.730 332.109,181.978 329.566,186.983 315.188 C 194.482 293.651,183.272 268.527,169.107 275.122 M273.043 275.142 C 264.606 279.346,264.225 290.253,272.357 294.777 C 279.571 298.790,288.511 293.448,288.511 285.124 C 288.511 277.185,279.985 271.683,273.043 275.142 M272.527 304.454 C 262.753 309.456,262.607 321.738,272.268 326.444 C 281.303 330.846,291.519 323.056,289.690 313.158 C 288.279 305.529,279.312 300.981,272.527 304.454 " stroke="none" fill="#fffeff" fill-rule="evenodd"></path></g></svg>